<?xml version="1.0" encoding="UTF-8"?>
<svg width="103px" height="110px" viewBox="0 0 103 110" version="1.1" xmlns="http://www.w3.org/2000/svg" xmlns:xlink="http://www.w3.org/1999/xlink">
    <!-- Generator: Sketch 42 (36781) - http://www.bohemiancoding.com/sketch -->
    <title>Business / Product Innovation</title>
    <desc>Created with Sketch.</desc>
    <defs></defs>
    <g id="Welcome" stroke="none" stroke-width="1" fill="none" fill-rule="evenodd">
        <g id="Artboard" transform="translate(-886.000000, -1276.000000)">
            <g id="Business-/-Product-Innovation" transform="translate(886.000000, 1276.000000)">
                <path d="M0.968168307,65.6361148 L0.968168307,74.519714 C0.968168307,74.8647247 1.22645469,75.2098666 1.6566703,75.2098666 C2.00105214,75.2098666 2.34517229,74.9510102 2.34517229,74.519714 L2.34517229,65.6361148 C2.34517229,65.2911041 2.08701675,64.9460934 1.6566703,64.9460934 C1.22645469,64.9460934 0.968168307,65.2911041 0.968168307,65.6361148" id="Fill-1" fill="#29064F"></path>
                <path d="M1.57064026,80.9885269 C1.91489126,80.9885269 2.25914225,80.7296705 2.25914225,80.2985055 L2.25914225,77.4522656 C2.25914225,77.1072549 2.00098672,76.7622442 1.57064026,76.7622442 C1.22638926,76.7622442 0.882138269,77.0209695 0.882138269,77.4522656 L0.882138269,80.2985055 C0.968233729,80.6435162 1.22638926,80.9885269 1.57064026,80.9885269" id="Fill-3" fill="#29064F"></path>
                <path d="M99.7647105,56.9248635 C100.108961,56.9248635 100.453212,56.6660071 100.453212,56.2348421 L100.453212,47.3511117 C100.453212,47.006101 100.194926,46.6610903 99.7647105,46.6610903 C99.4204595,46.6610903 99.0762085,46.9199467 99.0762085,47.3511117 L99.0762085,56.2348421 C99.0762085,56.6660071 99.4204595,56.9248635 99.7647105,56.9248635" id="Fill-5" fill="#29064F"></path>
                <path d="M99.7647105,62.7035501 C100.108961,62.7035501 100.453212,62.4448248 100.453212,62.0135287 L100.453212,59.1672888 C100.453212,58.8222781 100.194926,58.4772674 99.7647105,58.4772674 C99.4204595,58.4772674 99.0762085,58.7361238 99.0762085,59.1672888 L99.0762085,62.0135287 C99.0762085,62.4448248 99.4204595,62.7035501 99.7647105,62.7035501" id="Fill-7" fill="#29064F"></path>
                <path d="M28.5934144,8.79754984 C28.679379,8.88383529 28.8515699,8.96998962 29.02363,8.96998962 C29.1958209,8.96998962 29.367881,8.88383529 29.4539765,8.79754984 C29.712132,8.5388246 29.712132,8.10752844 29.4539765,7.84893434 L28.0771033,6.46876042 C27.818817,6.21016631 27.3886013,6.21016631 27.130315,6.46876042 C26.8721594,6.72761679 26.8721594,7.15878181 27.130315,7.41763818 L28.5934144,8.79754984 Z" id="Fill-9" fill="#F34400"></path>
                <path d="M33.1545504,13.3687645 C33.240515,13.45505 33.4127059,13.5412043 33.584766,13.5412043 C33.7569569,13.5412043 33.929017,13.45505 34.0151124,13.3687645 C34.273268,13.1100393 34.273268,12.6787431 34.0151124,12.420149 L32.6382393,11.0399751 C32.3799529,10.781381 31.9497373,10.781381 31.6914509,11.0399751 C31.4334262,11.2988315 31.4334262,11.7301276 31.6914509,11.9888529 L33.1545504,13.3687645 Z" id="Fill-11" fill="#F34400"></path>
                <path d="M27.6467045,13.5412568 C27.8187646,13.5412568 27.9909555,13.4551024 28.077051,13.368817 L29.454055,11.9887742 C29.7120797,11.730049 29.7120797,11.2987528 29.454055,11.0400276 C29.1957686,10.7813023 28.765553,10.7813023 28.5072666,11.0400276 L27.1303935,12.4200704 C26.8721071,12.6787956 26.8721071,13.1100918 27.1303935,13.368817 C27.3024535,13.5412568 27.4746445,13.5412568 27.6467045,13.5412568" id="Fill-13" fill="#F34400"></path>
                <path d="M32.2078536,9.05636687 C32.3799137,9.05636687 32.5521046,8.97008141 32.6382,8.88392709 L34.015204,7.41759884 C34.2732287,7.15874247 34.2732287,6.72757745 34.015204,6.46885221 C33.7569176,6.2962813 33.4126667,6.2962813 33.1545111,6.55513767 L31.777638,7.93504932 C31.5193516,8.19390569 31.5193516,8.62507072 31.777638,8.88392709 C31.8636026,8.97008141 32.0357935,9.05636687 32.2078536,9.05636687" id="Fill-15" fill="#F34400"></path>
                <path d="M1.65663104,23.2874877 C1.7427265,23.3737731 1.91491742,23.4599275 2.0869775,23.4599275 C2.25903758,23.4599275 2.4312285,23.3737731 2.51732396,23.2874877 C2.77547949,23.0287624 2.77547949,22.5974663 2.51732396,22.3388722 L1.14031997,20.9586983 C0.882164438,20.7001042 0.451817983,20.7001042 0.193662447,20.9586983 C-0.0644930884,21.2175546 -0.0644930884,21.6487197 0.193662447,21.907576 L1.65663104,23.2874877 Z" id="Fill-17" fill="#F34400"></path>
                <path d="M5.70156061,25.5299392 C5.44327423,25.2712139 5.01292778,25.2712139 4.75490309,25.5299392 C4.49661671,25.7887956 4.49661671,26.2200917 4.75490309,26.4786858 L6.13177623,27.8587286 C6.21787169,27.9450141 6.3900626,28.0311684 6.56212268,28.0311684 C6.7343136,28.0311684 6.90637368,27.9450141 6.99233829,27.8587286 C7.25062467,27.6000034 7.25062467,27.1687072 6.99233829,26.909982 L5.70156061,25.5299392 Z" id="Fill-19" fill="#F34400"></path>
                <path d="M2.60334091,26.3925446 C2.86162729,26.1336882 2.86162729,25.7023921 2.60334091,25.443798 C2.34518537,25.1849416 1.91483892,25.1849416 1.65668338,25.443798 L0.2796794,26.8237096 C0.0216547091,27.082566 0.0216547091,27.513731 0.2796794,27.7724563 C0.36577486,27.8587417 0.53796578,27.9450272 0.710025856,27.9450272 C0.882216776,27.9450272 1.05427685,27.8587417 1.14024147,27.7724563 L2.60334091,26.3925446 Z" id="Fill-21" fill="#F34400"></path>
                <path d="M6.21791094,20.9587245 L4.7548115,22.3387673 C4.49665596,22.5974925 4.49665596,23.0287887 4.7548115,23.2875139 C4.84090696,23.3737994 5.01296703,23.4599537 5.18502711,23.4599537 C5.35721803,23.4599537 5.52940895,23.3737994 5.61550441,23.2875139 L6.99237754,21.9074711 C7.25066392,21.6487459 7.25066392,21.2175809 6.99237754,20.9587245 C6.82031747,20.6999992 6.38997101,20.6999992 6.21791094,20.9587245" id="Fill-23" fill="#F34400"></path>
                <path d="M75.3236879,20.3550541 C75.4097834,20.4412084 75.5819743,20.5274939 75.7540344,20.5274939 C75.9260945,20.5274939 76.0982854,20.4412084 76.18425,20.3550541 C76.4425364,20.0961977 76.4425364,19.6650327 76.18425,19.4063075 L74.8073769,18.0262647 C74.5492213,17.7675395 74.1188749,17.7675395 73.8607193,18.0262647 C73.6025638,18.2849899 73.6025638,18.7162861 73.8607193,18.9751425 L75.3236879,20.3550541 Z" id="Fill-25" fill="#F34400"></path>
                <path d="M79.3684867,22.511312 C79.1103311,22.2524556 78.6799847,22.2524556 78.42196,22.511312 C78.1636736,22.7700372 78.1636736,23.2013334 78.42196,23.4599275 L79.7988331,24.8399702 C79.8847977,24.9262557 80.0569886,25.01241 80.2290487,25.01241 C80.4012396,25.01241 80.5732997,24.9262557 80.6593952,24.8399702 C80.9176816,24.581245 80.9176816,24.1499489 80.6593952,23.8912236 L79.3684867,22.511312 Z" id="Fill-27" fill="#F34400"></path>
                <path d="M74.3771089,25.0124494 C74.549169,25.0124494 74.7213599,24.926295 74.8073245,24.8400096 L76.1843285,23.4599668 C76.442484,23.2012416 76.442484,22.7699454 76.1843285,22.5113513 C75.926173,22.2524949 75.4958265,22.2524949 75.237671,22.5113513 L73.8607978,23.891263 C73.6025115,24.1499882 73.6025115,24.5812843 73.8607978,24.8400096 C74.0328579,25.0124494 74.2050488,25.0124494 74.3771089,25.0124494" id="Fill-29" fill="#F34400"></path>
                <path d="M80.745543,18.0262909 C80.4872566,17.7674346 80.0569101,17.7674346 79.7988854,18.0262909 L78.4218815,19.4062026 C78.1637259,19.6650589 78.1637259,20.096224 78.4218815,20.3550803 C78.5078461,20.4412347 78.680037,20.5275201 78.8520971,20.5275201 C79.024288,20.5275201 79.1963481,20.4412347 79.2824435,20.3550803 L80.6594475,18.9750376 C81.0036985,18.6300269 81.0036985,18.2850162 80.745543,18.0262909" id="Fill-31" fill="#F34400"></path>
                <path d="M67.2340905,93.6671783 C66.9759349,93.4083219 66.5455885,93.4083219 66.2875638,93.6671783 C66.0292774,93.9260346 66.0292774,94.3571997 66.2875638,94.6159249 L67.3201859,95.650957 C67.4061506,95.7371113 67.5783415,95.8233968 67.7504015,95.8233968 C67.9225925,95.8233968 68.0946525,95.7371113 68.180748,95.650957 C68.4389035,95.3921006 68.4389035,94.9609356 68.180748,94.7022103 L67.2340905,93.6671783 Z" id="Fill-33" fill="#F34400"></path>
                <path d="M70.7625389,97.1171016 C70.5043833,96.8583764 70.0740369,96.8583764 69.8160122,97.1171016 C69.5577258,97.375958 69.5577258,97.8072542 69.8160122,98.0658483 L70.8486343,99.1008804 C70.934599,99.1871658 71.1067899,99.2733201 71.2788499,99.2733201 C71.4510409,99.2733201 71.6231009,99.1871658 71.7091964,99.1008804 C71.9673519,98.8421551 71.9673519,98.410859 71.7091964,98.1522649 L70.7625389,97.1171016 Z" id="Fill-35" fill="#F34400"></path>
                <path d="M67.406216,97.1171016 L66.373463,98.1522649 C66.1154383,98.410859 66.1154383,98.8421551 66.373463,99.1008804 C66.4596893,99.1871658 66.6317494,99.2733201 66.8038094,99.2733201 C66.9760004,99.2733201 67.1480604,99.1871658 67.2341559,99.1008804 L68.266778,98.0658483 C68.5250644,97.8072542 68.5250644,97.375958 68.266778,97.1171016 C68.094718,96.8583764 67.6645024,96.8583764 67.406216,97.1171016" id="Fill-37" fill="#F34400"></path>
                <path d="M70.8486605,93.6671783 L69.8159075,94.7022103 C69.557752,94.9609356 69.557752,95.3921006 69.8159075,95.650957 C69.902003,95.7371113 70.0740631,95.8233968 70.246254,95.8233968 C70.4183141,95.8233968 70.5903741,95.7371113 70.6766004,95.650957 L71.7092226,94.6159249 C71.9673781,94.3571997 71.9673781,93.9259035 71.7092226,93.6671783 C71.5371625,93.4083219 71.106816,93.4083219 70.8486605,93.6671783" id="Fill-39" fill="#F34400"></path>
                <path d="M8.71352785,102.723427 C8.45537231,102.464571 8.02502586,102.464571 7.76700116,102.723427 C7.50871478,102.982152 7.50871478,103.413449 7.76700116,103.672043 L8.79962331,104.707075 C8.88558792,104.79336 9.05777884,104.879514 9.22996976,104.879514 C9.40216068,104.879514 9.57422076,104.79336 9.66018537,104.707075 C9.91847175,104.448349 9.91847175,104.017053 9.66018537,103.758459 L8.71352785,102.723427 Z" id="Fill-41" fill="#F34400"></path>
                <path d="M12.2419762,106.17335 C11.9838207,105.914625 11.5534743,105.914625 11.2954496,106.17335 C11.0371632,106.432207 11.0371632,106.863372 11.2954496,107.122097 L12.3280717,108.157129 C12.4140363,108.243284 12.5862272,108.329569 12.7584182,108.329569 C12.9306091,108.329569 13.1026692,108.243284 13.1886338,108.157129 C13.4469202,107.898273 13.4469202,107.467108 13.1886338,107.208383 L12.2419762,106.17335 Z" id="Fill-43" fill="#F34400"></path>
                <path d="M8.88565334,106.17335 L7.85290036,107.208383 C7.59487567,107.467108 7.59487567,107.898273 7.85290036,108.157129 C7.93912666,108.243284 8.11118674,108.329569 8.28324681,108.329569 C8.45543773,108.329569 8.62749781,108.243284 8.71359327,108.157129 L9.74634625,107.122097 C10.0045018,106.863372 10.0045018,106.432207 9.74634625,106.17335 C9.57428618,105.914625 9.14393972,105.914625 8.88565334,106.17335" id="Fill-45" fill="#F34400"></path>
                <path d="M12.3280979,102.723427 L11.2953449,103.758459 C11.0371894,104.017053 11.0371894,104.448349 11.2953449,104.707075 C11.3814404,104.79336 11.5535004,104.879514 11.7256913,104.879514 C11.8977514,104.879514 12.0698115,104.79336 12.1560378,104.707075 L13.1886599,103.672043 C13.4469463,103.413449 13.4469463,102.982152 13.1886599,102.723427 C13.0165999,102.464571 12.5862534,102.464571 12.3280979,102.723427" id="Fill-47" fill="#F34400"></path>
                <path d="M99.0762477,82.2821793 C97.9573993,82.2821793 97.0968372,81.4197182 97.0968372,80.2985317 C97.0968372,79.1772142 97.9573993,78.314753 99.0762477,78.314753 C100.194965,78.314753 101.055527,79.1772142 101.055527,80.2985317 C101.055527,81.4197182 100.194965,82.2821793 99.0762477,82.2821793 M99.0762477,77.0209957 C97.2688973,77.0209957 95.8059287,78.4873239 95.8059287,80.2985317 C95.8059287,82.1097395 97.2688973,83.5759367 99.0762477,83.5759367 C100.883467,83.5759367 102.346436,82.1097395 102.346436,80.2985317 C102.432401,78.4873239 100.883467,77.0209957 99.0762477,77.0209957" id="Fill-49" fill="#F34400"></path>
                <path d="M3.63604156,92.9771962 C2.86157495,92.9771962 2.17307296,92.3734603 2.17307296,91.510868 C2.17307296,90.7346922 2.77547949,90.044802 3.63604156,90.044802 C4.49660362,90.044802 5.099141,90.6484068 5.099141,91.510868 C5.099141,92.3734603 4.49660362,92.9771962 3.63604156,92.9771962 M3.63604156,88.837199 C2.17307296,88.837199 0.882164438,90.0446709 0.882164438,91.5972846 C0.882164438,93.0633505 2.0869775,94.3571079 3.63604156,94.3571079 C5.18510561,94.3571079 6.39004952,93.149636 6.39004952,91.5972846 C6.39004952,90.0446709 5.18510561,88.837199 3.63604156,88.837199" id="Fill-51" fill="#F34400"></path>
                <path d="M24.4624941,20.7862191 C25.3230561,20.7862191 26.0115581,21.4762405 26.0115581,22.3388328 C26.0115581,23.201294 25.3230561,23.8913154 24.4624941,23.8913154 C23.601932,23.8913154 22.91343,23.201294 22.91343,22.3388328 C22.91343,21.4762405 23.601932,20.7862191 24.4624941,20.7862191 M24.4624941,25.1849416 C26.0115581,25.1849416 27.3024666,23.8913154 27.3024666,22.3388328 C27.3024666,20.7862191 26.0115581,19.4925929 24.4624941,19.4925929 C22.91343,19.4925929 21.6225215,20.7862191 21.6225215,22.3388328 C21.6225215,23.9774697 22.91343,25.1849416 24.4624941,25.1849416" id="Fill-53" fill="#F34400"></path>
                <path d="M98.3876541,101.515824 L88.7490188,101.515824 C88.4047678,101.515824 88.0605168,101.77468 88.0605168,102.205977 C88.0605168,102.637142 88.3188032,102.895867 88.7490188,102.895867 L98.3876541,102.895867 C98.732036,102.895867 99.076287,102.637142 99.076287,102.205977 C99.076287,101.77468 98.7319051,101.515824 98.3876541,101.515824" id="Fill-55" fill="#29064F"></path>
                <path d="M82.5526971,101.515824 C82.2084461,101.515824 81.8641952,101.77468 81.8641952,102.205977 C81.8641952,102.637142 82.1224815,102.895867 82.5526971,102.895867 L85.6509561,102.895867 C85.9952071,102.895867 86.3393272,102.637142 86.3393272,102.205977 C86.3393272,101.77468 86.0811717,101.515824 85.6509561,101.515824 L82.5526971,101.515824 Z" id="Fill-57" fill="#29064F"></path>
                <path d="M89.2653691,104.793373 L82.552671,104.793373 C82.20842,104.793373 81.8642998,105.052099 81.8642998,105.483395 C81.8642998,105.914691 82.1224554,106.173285 82.552671,106.173285 L89.2653691,106.173285 C89.6096201,106.173285 89.9538711,105.914691 89.9538711,105.483395 C89.9538711,105.052099 89.6096201,104.793373 89.2653691,104.793373" id="Fill-59" fill="#29064F"></path>
                <path d="M94.2568646,104.793373 L92.105394,104.793373 C91.761143,104.793373 91.416892,105.052099 91.416892,105.483395 C91.416892,105.914691 91.6751784,106.173285 92.105394,106.173285 L94.2568646,106.173285 C94.6011156,106.173285 94.9453666,105.914691 94.9453666,105.483395 C94.9453666,105.052099 94.6011156,104.793373 94.2568646,104.793373" id="Fill-61" fill="#29064F"></path>
                <path d="M26.3557699,99.1008804 L16.7171345,99.1008804 C16.3728835,99.1008804 16.0286325,99.3597367 16.0286325,99.7909018 C16.0286325,100.135912 16.2867881,100.480792 16.7171345,100.480792 L26.3557699,100.480792 C26.7000208,100.480792 27.0442718,100.222198 27.0442718,99.7909018 C26.9581764,99.3597367 26.7000208,99.1008804 26.3557699,99.1008804" id="Fill-63" fill="#29064F"></path>
                <path d="M32.5520915,99.1008804 L29.4539634,99.1008804 C29.1097124,99.1008804 28.7655922,99.3597367 28.7655922,99.7909018 C28.7655922,100.135912 29.0236169,100.480792 29.4539634,100.480792 L32.5520915,100.480792 C32.8963425,100.480792 33.2405935,100.222198 33.2405935,99.7909018 C33.2405935,99.3597367 32.982438,99.1008804 32.5520915,99.1008804" id="Fill-65" fill="#29064F"></path>
                <path d="M32.5520915,95.7371375 L25.8393934,95.7371375 C25.4951424,95.7371375 25.1510222,95.9959939 25.1510222,96.4271589 C25.1510222,96.8584551 25.4091777,97.1170492 25.8393934,97.1170492 L32.5520915,97.1170492 C32.8963425,97.1170492 33.2405935,96.8584551 33.2405935,96.4271589 C33.2405935,95.9959939 32.982438,95.7371375 32.5520915,95.7371375" id="Fill-67" fill="#29064F"></path>
                <path d="M22.9994339,97.0309211 C23.3436849,97.0309211 23.6879359,96.7720647 23.6879359,96.3408997 C23.6879359,95.9096035 23.4297803,95.6510094 22.9994339,95.6510094 L20.8480941,95.6510094 C20.5038431,95.6510094 20.1595921,95.9096035 20.1595921,96.3408997 C20.1595921,96.7720647 20.4177477,97.0309211 20.8480941,97.0309211 L22.9994339,97.0309211 Z" id="Fill-69" fill="#29064F"></path>
                <path d="M77.7334449,8.97005519 L87.3720802,8.97005519 C87.7163312,8.97005519 88.0605822,8.71132995 88.0605822,8.28003379 C88.0605822,7.9350231 87.8024267,7.59014353 87.3720802,7.59014353 L77.7334449,7.59014353 C77.3891939,7.59014353 77.0448121,7.84886877 77.0448121,8.28003379 C77.0448121,8.62504449 77.3891939,8.97005519 77.7334449,8.97005519" id="Fill-71" fill="#29064F"></path>
                <path d="M90.4701822,8.97005519 L93.5684411,8.97005519 C93.9126921,8.97005519 94.2568123,8.71132995 94.2568123,8.28003379 C94.2568123,7.9350231 93.9986568,7.59014353 93.5684411,7.59014353 L90.4701822,7.59014353 C90.1259312,7.59014353 89.7816802,7.84886877 89.7816802,8.28003379 C89.7816802,8.62504449 90.1259312,8.97005519 90.4701822,8.97005519" id="Fill-73" fill="#29064F"></path>
                <path d="M93.5684019,10.9538208 L86.8557037,10.9538208 C86.5114527,10.9538208 86.1673326,11.2126772 86.1673326,11.6438422 C86.1673326,11.9888529 86.4253573,12.3337324 86.8557037,12.3337324 L93.5684019,12.3337324 C93.9126529,12.3337324 94.2569039,12.0751383 94.2569039,11.6438422 C94.2569039,11.2126772 93.9126529,10.9538208 93.5684019,10.9538208" id="Fill-75" fill="#29064F"></path>
                <path d="M81.8642344,10.9538208 C81.5199834,10.9538208 81.1757324,11.2126772 81.1757324,11.6438422 C81.1757324,11.9888529 81.4340188,12.3337324 81.8642344,12.3337324 L84.015705,12.3337324 C84.359956,12.3337324 84.704207,12.0751383 84.704207,11.6438422 C84.704207,11.2988315 84.4459206,10.9538208 84.015705,10.9538208 L81.8642344,10.9538208 Z" id="Fill-77" fill="#29064F"></path>
                <path d="M62.9311886,108.070804 L40.7278498,108.070804 C39.694966,108.070804 38.9204994,107.294629 38.9204994,106.259597 C38.9204994,105.224696 39.694966,104.448389 40.7278498,104.448389 L44.8586001,104.448389 L58.8003075,104.448389 L62.9311886,104.448389 C63.9639415,104.448389 64.7384081,105.224696 64.7384081,106.259597 C64.7384081,107.294629 63.9639415,108.070804 62.9311886,108.070804 L62.9311886,108.070804 Z M48.5591347,89.6996077 L55.099642,89.6996077 L58.02571,103.154631 L45.6331975,103.154631 L48.5591347,89.6996077 Z M11.2092756,84.5247095 L11.2092756,79.5222511 L92.4496319,79.5222511 L92.4496319,84.5247095 C92.4496319,86.5947737 90.728377,88.319696 88.6630018,88.319696 L14.9959057,88.319696 C12.9305306,88.4059815 11.2092756,86.680928 11.2092756,84.5247095 L11.2092756,84.5247095 Z M14.9959057,32.4299302 L29.8842706,32.4299302 C29.7120797,32.60237 29.5400196,32.6886554 29.454055,32.8612263 C29.2818641,32.9473807 29.1957686,33.1199516 29.0235777,33.206237 C28.8515176,33.3786768 28.5933621,33.6375332 28.421302,33.809973 C28.3352065,33.8961273 28.2492419,34.0686982 28.077051,34.1549837 C27.8187646,34.4137089 27.6467045,34.6724342 27.4746445,34.9311594 L27.3024535,35.1035992 C27.044298,35.4486099 26.7861425,35.7936206 26.6139516,36.0524769 C26.5278561,36.1386313 26.5278561,36.2249167 26.4418915,36.311071 C26.2698314,36.5699274 26.1836051,36.7424983 26.011545,37.0012236 C25.9255804,37.0873779 25.8394849,37.2599488 25.8394849,37.3462343 C25.7533895,37.518674 25.667294,37.7773993 25.495234,37.9499702 C25.4091385,38.12241 25.4091385,38.2086954 25.323043,38.2948498 C25.2370784,38.4674207 25.150983,38.6398605 25.0650183,38.8124314 C24.978792,38.8987168 24.978792,39.0711566 24.8928274,39.1574421 C24.806732,39.3298819 24.7207673,39.5023216 24.7207673,39.6748926 C24.6346719,39.761178 24.6346719,39.9336178 24.6346719,40.0199033 C24.5485764,40.192343 24.5485764,40.3649139 24.462481,40.4511994 C24.462481,40.5373537 24.3765164,40.7099246 24.3765164,40.7962101 C24.3765164,40.9686499 24.2904209,41.0549353 24.2904209,41.2275063 C24.2904209,41.3136606 24.2043254,41.399946 24.2043254,41.4861004 C24.2043254,41.572517 24.11823,41.7449567 24.11823,41.8311111 C24.11823,41.9173965 24.11823,42.003682 24.0322654,42.0899674 C24.0322654,42.1761218 23.9461699,42.3486927 23.9461699,42.4349781 L23.9461699,42.6074179 L23.9461699,42.8661431 L23.9461699,42.9524286 L23.9461699,43.1248684 L23.9461699,43.211285 L23.9461699,43.2974393 C23.9461699,43.4698791 24.0322654,43.64245 24.11823,43.8148898 C24.2043254,43.9874607 24.3765164,43.9874607 24.6346719,43.9874607 L43.309536,43.9874607 L43.309536,46.316119 C43.309536,47.2649967 43.9120734,48.1274579 44.7726355,48.3861832 C43.998038,52.0948842 42.0186275,55.1135639 40.5556589,56.7523319 C40.3835988,55.8898708 39.9532524,55.1135639 39.2647504,54.5961134 C38.5762484,54.078663 37.7156863,53.906092 36.8551243,54.078663 L36.7690288,54.078663 C36.5108733,52.0087299 34.7897491,50.4562473 32.7242432,50.4562473 C32.3799922,50.4562473 32.0357412,50.5424017 31.6914902,50.6286871 C31.6055256,49.593655 31.0029882,48.5586229 30.0563307,48.1274579 C29.3678287,47.8686015 28.6794575,47.8686015 27.9909555,48.1274579 C27.6467045,48.2998977 27.388549,48.4724686 27.1303935,48.7310627 C26.700047,48.0411725 26.011545,47.6100074 25.2370784,47.4374365 C24.462481,47.2649967 23.6019189,47.4374365 22.9134169,47.8686015 C22.1388195,48.3861832 21.7086038,49.0760734 21.5365438,50.0249512 C21.4504483,50.3698307 21.7086038,50.7148414 22.0528548,50.801258 C22.3971058,50.8874124 22.7413568,50.6286871 22.8273215,50.2836764 C22.9134169,49.7662259 23.2576679,49.2486443 23.6880144,48.9899191 C24.11823,48.7310627 24.5485764,48.6449084 25.0650183,48.7310627 C26.0976405,48.9899191 26.7861425,50.0249512 26.5278561,51.1461376 C26.4418915,51.4911483 26.700047,51.836159 27.044298,51.9223133 L27.1303935,51.9223133 C27.4746445,51.9223133 27.7328,51.7498735 27.7328,51.4048628 C27.8187646,51.0598521 27.8187646,50.6286871 27.7328,50.2836764 C27.9049909,49.8523803 28.1630156,49.593655 28.5072666,49.4212153 C28.8515176,49.2486443 29.1957686,49.2486443 29.5400196,49.4212153 C30.314617,49.7662259 30.658868,50.6286871 30.314617,51.4048628 C29.9703661,51.6637192 29.6261151,52.0087299 29.3678287,52.3536095 C29.1957686,52.6123347 29.2818641,53.0436309 29.5400196,53.2162018 C29.7981751,53.3886416 30.2283907,53.3023561 30.4005817,53.0436309 C30.9170236,52.267324 31.7775856,51.836159 32.6381477,51.836159 C34.1872118,51.836159 35.3920248,53.1297852 35.3920248,54.7685532 C35.1340001,55.0274096 34.8757138,55.2861348 34.6175582,55.5448601 C34.4453673,55.8035853 34.5314628,56.2348815 34.7897491,56.4073212 C35.0477738,56.5798922 35.4782511,56.4936067 35.6503112,56.2348815 C35.9084667,55.8035853 36.3388132,55.4585746 36.8551243,55.3724203 C37.3714353,55.2861348 37.801651,55.3724203 38.2319974,55.717431 C39.0926903,56.3210358 39.350715,57.6147931 38.7484393,58.5636709 C38.5762484,58.822265 38.6623439,59.1672757 38.8344039,59.4261321 C38.9204994,59.5122864 39.0926903,59.5985718 39.2647504,59.5985718 C39.4368105,59.5985718 39.6090014,59.5122864 39.694966,59.4261321 C39.8671569,59.2536923 44.6004446,54.9411241 45.8052576,48.6449084 L46.5797242,48.6449084 C46.6658197,50.4562473 47.2682262,55.8035853 51.2270472,59.4261321 C51.3130119,59.5122864 51.4852028,59.5985718 51.6573937,59.5985718 C51.8294538,59.5985718 52.0016447,59.5122864 52.0876093,59.4261321 C56.0464303,55.8035853 56.648706,50.4562473 56.7349323,48.6449084 L57.5954944,48.6449084 C58.8003075,55.0274096 63.5335951,59.2536923 63.7056552,59.4261321 C63.7917506,59.5122864 63.9639415,59.5985718 64.1360016,59.5985718 C64.3080617,59.5985718 64.4802526,59.5122864 64.5662172,59.4261321 C64.8245036,59.2536923 64.8245036,58.822265 64.6523127,58.5636709 C64.0499062,57.6147931 64.3080617,56.4073212 65.1687546,55.717431 C65.5989702,55.4585746 66.0293167,55.2861348 66.5456277,55.3724203 C67.0619388,55.4585746 67.4922853,55.8035853 67.7504408,56.2348815 C67.9225009,56.4936067 68.3529782,56.5798922 68.6110029,56.4073212 C68.8692892,56.2348815 68.9552539,55.8035853 68.7831938,55.5448601 C68.6110029,55.1998494 68.3529782,54.9411241 68.0087272,54.7685532 C68.0087272,53.1297852 69.2995049,51.836159 70.7626043,51.836159 C71.6231664,51.836159 72.4837284,52.267324 73.0000395,53.0436309 C73.1722304,53.3023561 73.6025769,53.3886416 73.8606016,53.2162018 C74.1188879,53.0436309 74.2049834,52.6123347 74.0329233,52.3536095 C73.774637,52.0087299 73.430386,51.6637192 73.086135,51.4048628 C72.741884,50.6286871 73.1722304,49.6799405 73.8606016,49.4212153 C74.2049834,49.2486443 74.5492344,49.2486443 74.8934854,49.4212153 C75.2377364,49.593655 75.5819874,49.8523803 75.667952,50.2836764 C75.5819874,50.6286871 75.5819874,51.0598521 75.667952,51.4048628 C75.7540475,51.7498735 76.012203,51.9223133 76.2703585,51.9223133 L76.3563232,51.9223133 C76.7005741,51.836159 76.9588605,51.4911483 76.8727651,51.1461376 C76.7005741,50.0249512 77.3031115,48.9899191 78.3357337,48.7310627 C78.7660801,48.6449084 79.282522,48.7310627 79.7127376,48.9899191 C80.1430841,49.2486443 80.4873351,49.7662259 80.5732997,50.2836764 C80.6593952,50.6286871 81.0036462,50.8874124 81.3478972,50.801258 C81.6921482,50.7148414 81.9501729,50.3698307 81.8642082,50.0249512 C81.6921482,49.1623589 81.1757062,48.3861832 80.4873351,47.8686015 C79.7988331,47.4374365 78.938271,47.2649967 78.1636736,47.4374365 C77.3890761,47.6100074 76.7005741,48.1274579 76.2703585,48.7310627 C76.012203,48.4724686 75.7540475,48.2998977 75.4097965,48.1274579 C74.7212945,47.8686015 74.0329233,47.8686015 73.3442905,48.1274579 C72.3115375,48.5586229 71.7092618,49.593655 71.7092618,50.6286871 C71.3650108,50.5424017 71.0207598,50.4562473 70.6765088,50.4562473 C68.6110029,50.4562473 66.8898787,52.0948842 66.6317232,54.078663 L66.5456277,54.078663 C65.6850657,53.906092 64.9104682,54.078663 64.1360016,54.5961134 C63.8777152,55.5448601 63.4474996,56.3210358 63.2754395,57.183497 C61.8123401,55.4585746 59.746965,52.4398949 59.0583321,48.8174793 C59.8329296,48.4724686 60.435467,47.6961618 60.435467,46.747284 L60.435467,44.4187568 L79.1103311,44.4187568 C79.282522,44.4187568 79.4545821,44.3323403 79.626773,44.2461859 C79.7127376,44.0737462 79.7988331,43.9011752 79.7988331,43.7287355 L79.7988331,43.64245 L79.7988331,43.5561645 L79.7988331,43.3837248 L79.7988331,43.211285 L79.7988331,42.9524286 L79.7988331,42.7799888 C79.7988331,42.6937034 79.7988331,42.6074179 79.7127376,42.4349781 C79.7127376,42.3486927 79.7127376,42.2624072 79.626773,42.1761218 C79.626773,42.0899674 79.5405467,41.9173965 79.5405467,41.8311111 C79.5405467,41.7449567 79.4545821,41.6586713 79.4545821,41.4861004 C79.4545821,41.399946 79.3684867,41.2275063 79.3684867,41.0549353 C79.3684867,40.9686499 79.282522,40.7962101 79.282522,40.7097935 C79.1964266,40.5373537 79.1964266,40.4511994 79.1103311,40.2786285 C79.0242357,40.192343 79.0242357,40.0199033 78.938271,39.9336178 C78.8521756,39.761178 78.8521756,39.6748926 78.7660801,39.5023216 C78.6799847,39.3298819 78.6799847,39.2437275 78.59402,39.0711566 C78.5079246,38.8987168 78.42196,38.7261459 78.3357337,38.5537061 C78.2497691,38.3812664 78.1636736,38.2948498 78.1636736,38.12241 C78.077709,37.9499702 77.9916135,37.7773993 77.9055181,37.6049595 C77.8194226,37.4323886 77.733458,37.3462343 77.6473625,37.1737945 C77.5612671,37.0010924 77.3890761,36.8286527 77.3031115,36.5699274 C77.2170161,36.3974876 77.1309206,36.311071 77.0448251,36.1386313 C76.8727651,35.7936206 76.6146095,35.5350265 76.3563232,35.1900158 C76.2703585,35.1035992 76.1842631,35.0174448 76.0982985,34.8450051 C75.9261075,34.5861487 75.7540475,34.4137089 75.5819874,34.1549837 C75.4957611,33.9825439 75.323701,33.8961273 75.2377364,33.7236875 C75.0655455,33.5512477 74.8934854,33.3786768 74.7212945,33.1199516 C74.5492344,32.9473807 74.4631389,32.8612263 74.290948,32.6886554 L73.8606016,32.2573593 L88.7489665,32.2573593 C90.8144724,32.2573593 92.5355966,33.9825439 92.5355966,36.0524769 L92.5355966,77.9697685 L11.2092756,77.9697685 L11.2092756,36.311071 C11.2092756,34.1549837 12.9305306,32.4299302 14.9959057,32.4299302 L14.9959057,32.4299302 Z M34.8757138,30.7050078 C38.7484393,28.8936689 41.3301255,25.2712533 42.965285,22.2525736 C42.8791896,23.0287493 42.8791896,23.8913416 42.8791896,24.6675173 C42.8791896,27.0825922 43.137476,29.497536 43.5676916,31.8261943 C43.309536,32.7749409 43.2234406,33.809973 43.2234406,34.8450051 L43.2234406,42.9524286 L25.2370784,42.9524286 C25.5813294,41.0549353 26.9582026,35.879906 32.1218366,32.2573593 C32.9823987,31.7399088 33.8429608,31.2224583 34.8757138,30.7050078 L34.8757138,30.7050078 Z M46.0634132,13.110118 C46.8380106,10.6088888 47.9568591,8.10752844 49.3337322,5.77887016 L54.4112708,5.77887016 C56.648706,9.83258193 58.1977701,13.9725792 58.9723675,18.2850162 C59.3166185,20.3550803 59.5749049,22.5974532 59.5749049,24.7538028 C59.5749049,26.3062854 59.4886786,27.8586368 59.2306539,29.4111194 C58.8864029,28.8075146 58.5420211,28.1174932 58.1118055,27.5137572 L57.8535191,27.1687466 C57.7675545,26.9961756 57.5092681,26.9100213 57.337208,26.9100213 C57.1651479,26.9100213 56.9069924,26.9961756 56.8208969,27.1687466 L56.5627414,27.5137572 C55.788144,28.6349437 55.1857374,29.8424155 54.7555218,31.136304 L54.7555218,31.2224583 L48.9894812,31.2224583 C48.5591347,29.9288321 47.9567282,28.7212291 47.1822616,27.5137572 L46.9239752,27.1687466 C46.8380106,26.9961756 46.5797242,26.9100213 46.4076641,26.9100213 C46.2354732,26.9100213 45.9774485,26.9961756 45.8913531,27.1687466 L45.6331975,27.5137572 C45.2028511,28.1174932 44.8586001,28.8075146 44.5143491,29.4112505 C44.342289,27.8586368 44.1700981,26.3062854 44.1700981,24.7538028 C44.1700981,20.7862454 44.7726355,16.9049734 46.0634132,13.110118 L46.0634132,13.110118 Z M51.5712982,1.98388363 L51.8294538,1.63887293 L52.0876093,1.98388363 C52.6900158,2.8463448 53.1203623,3.62252052 53.6366734,4.48511283 L50.0222342,4.48511283 C50.5385453,3.5363662 51.0548563,2.76005935 51.5712982,1.98388363 L51.5712982,1.98388363 Z M49.5059231,46.6611297 L49.5059231,44.3323403 L54.0670198,44.3323403 L54.0670198,46.6611297 C54.0670198,47.6961618 54.6694264,48.4724686 55.6160839,48.8174793 C55.5301193,50.3698307 55.0136773,55.0274096 51.8294538,58.3048145 C48.5591347,55.0274096 48.1289191,50.2836764 48.0428237,48.8174793 C48.9033857,48.4724686 49.5059231,47.6961618 49.5059231,46.6611297 L49.5059231,46.6611297 Z M49.5059231,33.809973 L49.5059231,33.5512477 C49.5059231,33.206237 49.4196968,32.8612263 49.3337322,32.4299302 L54.4112708,32.4299302 C54.3251754,32.7749409 54.3251754,33.1200827 54.2390799,33.4649623 L54.2390799,33.7236875 C54.2390799,34.0686982 54.1529844,34.4137089 54.1529844,34.8450051 L54.1529844,42.9524286 L49.5059231,42.9524286 L49.5059231,34.8450051 L49.5059231,33.809973 Z M45.3749112,47.6100074 C44.8586001,47.6100074 44.5143491,47.1787113 44.5143491,46.6611297 L44.5143491,43.64245 L44.5143491,34.9311594 C44.5143491,33.9825439 44.6004446,33.0336661 44.8586001,32.171205 C44.8586001,32.0849195 44.8586001,32.0849195 44.9446956,31.9987652 C44.9446956,31.8261943 45.0306602,31.6537545 45.1168865,31.567469 C45.4610066,30.6187224 45.8913531,29.6699758 46.4937596,28.7212291 C47.1822616,29.7562612 47.6985727,30.8774476 47.9568591,31.9987652 C48.2148837,32.9473807 48.3870747,33.9825439 48.3870747,34.9311594 L48.3870747,46.6611297 C48.3870747,47.1787113 47.9568591,47.6100074 47.5265126,47.6100074 L45.3749112,47.6100074 Z M58.2838655,47.6100074 L56.304455,47.6100074 C55.788144,47.6100074 55.443893,47.1787113 55.443893,46.6611297 L55.443893,43.64245 L55.443893,34.9311594 C55.443893,33.9825439 55.6160839,32.9473807 55.8742394,31.9987652 C55.8742394,31.8261943 55.9603349,31.6537545 56.0464303,31.567469 C56.3906813,30.6187224 56.8208969,29.6699758 57.4233035,28.7212291 C58.1118055,29.8424155 58.6281165,30.8774476 58.8862721,31.9987652 L58.8862721,32.0849195 C59.1445584,33.0336661 59.2306539,33.8961273 59.2306539,34.9311594 L59.2306539,43.64245 L59.2306539,46.6611297 C59.1445584,47.1787113 58.8003075,47.6100074 58.2838655,47.6100074 L58.2838655,47.6100074 Z M68.7831938,30.7050078 C69.7298513,31.136304 70.6765088,31.7399088 71.5370709,32.2573593 C76.7005741,35.879906 78.077709,41.0549353 78.42196,42.9524286 L60.435467,42.9524286 L60.435467,34.8450051 C60.435467,34.3275546 60.435467,33.8961273 60.3493715,33.3786768 L60.3493715,33.2925225 C60.263276,32.8612263 60.1771806,32.3437759 60.091216,31.9124797 L60.091216,31.8261943 C60.5214316,29.497536 60.779718,27.0825922 60.779718,24.6675173 C60.779718,23.8913416 60.779718,23.0287493 60.6934917,22.2525736 C62.328782,25.3574076 64.9104682,28.8936689 68.7831938,30.7050078 L68.7831938,30.7050078 Z M62.9311886,103.154631 L59.3166185,103.154631 L56.3906813,89.6996077 L88.5769064,89.6996077 C91.416879,89.6996077 93.654445,87.3709494 93.654445,84.610995 L93.654445,36.311071 C93.654445,33.4649623 91.3309143,31.2224583 88.5769064,31.2224583 L72.0535128,31.2224583 C71.1929508,30.6187224 70.3322578,30.1012719 69.2995049,29.6699758 C63.8777152,27.1687466 61.1238381,20.700091 60.091216,18.0262909 C59.3166185,13.541283 57.681459,9.14256053 55.2718329,5.00269444 C55.2718329,4.91627785 55.1858683,4.83012353 55.1858683,4.83012353 C54.5833309,3.70880598 53.8087334,2.50133411 53.0342668,1.38014769 L52.2596694,0.258961278 C52.0016447,-0.086180551 51.3991073,-0.086180551 51.2270472,0.258961278 L50.4524498,1.38014769 C49.6779832,2.50133411 48.9033857,3.70880598 48.2148837,4.91627785 L48.2148837,5.00269444 C46.7519151,7.50392364 45.6331975,10.1774615 44.7726355,12.8512616 C44.1700981,14.576184 43.7397516,16.3013686 43.481727,18.0262909 C42.5349386,20.5275201 39.694966,26.9961756 34.2733072,29.5838214 C33.3266497,30.0149864 32.3799922,30.6187224 31.5194301,31.136304 L14.9959057,31.136304 C12.1559331,31.136304 9.91849792,33.4649623 9.91849792,36.2249167 L9.91849792,84.5247095 C9.91849792,87.3709494 12.2420286,89.6134534 14.9959057,89.6134534 L47.1822616,89.6134534 L44.342289,103.154631 L40.7278498,103.154631 C39.006464,103.154631 37.6295909,104.534543 37.6295909,106.259597 C37.6295909,107.98465 39.006464,109.364562 40.7278498,109.364562 L62.9311886,109.364562 C64.6523127,109.364562 66.0293167,107.98465 66.0293167,106.259597 C66.0293167,104.534543 64.6523127,103.154631 62.9311886,103.154631 L62.9311886,103.154631 Z" id="Fill-79" fill="#29064F"></path>
                <path d="M59.7469781,84.6109425 L43.9119557,84.6109425 C43.5677047,84.6109425 43.3095491,84.3522173 43.3095491,84.0072066 C43.3095491,83.662327 43.5677047,83.4034706 43.9119557,83.4034706 L59.7469781,83.4034706 C60.0912291,83.4034706 60.3493846,83.662327 60.3493846,84.0072066 C60.3493846,84.3522173 60.0912291,84.6109425 59.7469781,84.6109425 M59.7469781,82.1097133 L43.9119557,82.1097133 C42.8792027,82.1097133 42.0186406,82.9723056 42.0186406,84.0072066 C42.0186406,85.0422387 42.8792027,85.9046999 43.9119557,85.9046999 L59.7469781,85.9046999 C60.779731,85.9046999 61.6402931,85.0422387 61.6402931,84.0072066 C61.6402931,82.8860202 60.779731,82.1097133 59.7469781,82.1097133" id="Fill-81" fill="#29064F"></path>
                <path d="M74.3771089,39.1573896 C74.4630735,39.3298294 74.7213599,39.5024003 74.89342,39.5024003 C74.9795154,39.5024003 75.1515755,39.5024003 75.237671,39.416246 C75.581922,39.2436751 75.6678866,38.8123789 75.4098619,38.5536537 C74.8073245,37.5187527 74.0328579,36.5700061 73.172165,35.7074138 C72.9140095,35.4486885 72.483663,35.4486885 72.2256383,35.7074138 C71.9673519,35.966139 71.9673519,36.3974352 72.2256383,36.6561604 C73.0862004,37.2598964 73.7747024,38.2087741 74.3771089,39.1573896" id="Fill-83" fill="#F34400"></path>
                <path d="M66.5456277,32.5162156 C66.7176878,32.60237 66.8898787,32.6886554 67.0619388,32.7749409 C68.0946918,33.2925225 69.1273139,33.8961273 70.0741023,34.4999944 C70.1601978,34.5861487 70.3322578,34.5861487 70.4183533,34.5861487 C70.5904134,34.5861487 70.8486998,34.4999944 70.9346644,34.3275546 C71.1067245,34.0686982 71.1067245,33.6375332 70.7626043,33.3786768 C69.8159468,32.6886554 68.6970983,31.9987652 67.5783807,31.4811836 C67.4061898,31.3948981 67.2341297,31.3087438 67.0619388,31.2224583 C66.7176878,31.0498874 66.3735677,31.136304 66.2013767,31.4811836 C66.1154121,31.9124797 66.2874722,32.3437759 66.5456277,32.5162156" id="Fill-85" fill="#F34400"></path>
                <path d="M63.8777676,30.6187617 C63.963863,30.704916 64.136054,30.7912015 64.308114,30.7912015 C64.4801741,30.7912015 64.652365,30.704916 64.8244251,30.5324763 C65.0825806,30.273751 64.996616,29.8424549 64.7383296,29.5837296 C63.963863,28.8937082 63.1892656,28.1175325 62.414799,27.1686548 C62.1566434,26.9100607 61.8123924,26.8237752 61.4681414,27.0825004 C61.2098551,27.3412257 61.1238905,27.6862364 61.382046,28.0312471 C62.2426081,29.066148 63.0172055,29.9287403 63.8777676,30.6187617" id="Fill-87" fill="#F34400"></path>
                <path d="M39.5228536,30.791254 C39.6949137,30.791254 39.78114,30.7049685 39.9532,30.6188142 C40.8137621,29.8425073 41.6743242,28.979915 42.4489216,28.0311684 C42.7070772,27.7724431 42.6211126,27.341147 42.3628262,27.0825529 C42.1046706,26.8236965 41.6743242,26.909982 41.4162995,27.1687072 C40.7277975,28.1174538 39.9532,28.8936296 39.092638,29.5837821 C38.8343516,29.8425073 38.748387,30.187518 39.0065425,30.5323976 C39.1786026,30.7049685 39.3507935,30.791254 39.5228536,30.791254" id="Fill-89" fill="#F34400"></path>
                <path d="M33.4126667,34.6724866 C33.5847267,34.6724866 33.670953,34.6724866 33.7569176,34.5862011 C34.7035752,33.8961798 35.6503635,33.292575 36.7689503,32.8611477 C36.9411412,32.7748622 37.1132013,32.6887079 37.2853922,32.6024224 C37.6296432,32.4298515 37.7157387,31.9986865 37.5435478,31.7399613 C37.3714877,31.3949506 36.9411412,31.3087962 36.6829857,31.481236 C36.5107948,31.5673903 36.3386038,31.6536758 36.1666746,31.7399613 C35.0478262,32.2574117 33.9289777,32.9475643 32.982451,33.6374545 C32.7241647,33.8100254 32.6382,34.2411905 32.8102601,34.5862011 C32.982451,34.5862011 33.1545111,34.6724866 33.4126667,34.6724866" id="Fill-91" fill="#F34400"></path>
                <path d="M30.572681,35.6211546 C29.7121189,36.4836157 29.0236169,37.4324935 28.3351149,38.4673945 C28.1630549,38.8124052 28.2491503,39.1574158 28.5073059,39.3298556 C28.5934013,39.4161411 28.7654614,39.4161411 28.8515569,39.4161411 C29.0236169,39.4161411 29.2819033,39.3298556 29.3678679,39.0712615 C29.9702745,38.1223838 30.6587765,37.2599226 31.4333739,36.4836157 C31.6915294,36.2248905 31.6915294,35.7935943 31.4333739,35.5350002 C31.2613138,35.3624293 30.8309674,35.3624293 30.572681,35.6211546" id="Fill-93" fill="#F34400"></path>
                <path d="M56.6487453,22.3388197 C56.6487453,22.6838304 56.9070317,23.0288411 57.2511518,23.0288411 C57.5954028,23.0288411 57.9396538,22.7699847 57.9396538,22.424974 C57.9396538,16.7324943 54.9276211,10.0049824 54.8413948,9.74638826 C54.6694656,9.40137757 54.3252146,9.31509211 53.9808328,9.40137757 C53.6365818,9.57381735 53.5506172,9.91882804 53.6365818,10.2638387 C53.7228081,10.2638387 56.6487453,16.904934 56.6487453,22.3388197" id="Fill-95" fill="#F34400"></path>
                <path d="M46.5797504,23.0288018 L46.5797504,23.0288018 C46.9240014,23.0288018 47.2682524,22.7699454 47.2682524,22.3387804 C47.2682524,16.9050258 50.1943204,10.2637994 50.280285,10.1775139 C50.452476,9.83250325 50.280285,9.48749255 49.936034,9.31505277 C49.5919139,9.14248185 49.2476629,9.31505277 49.075472,9.66006347 C48.9895074,9.9187887 45.8912484,16.6463006 45.9773439,22.3387804 C45.8912484,22.6837911 46.2354994,23.0288018 46.5797504,23.0288018" id="Fill-97" fill="#F34400"></path>
                <path d="M75.7540475,56.4935674 C75.8400121,56.4935674 75.9261075,56.5798528 76.012203,56.5798528 C76.2703585,56.5798528 76.5285141,56.407413 76.6146095,56.2348421 C76.6146095,56.1485567 77.5613979,54.1647779 80.3151442,54.9410848 C80.6593952,55.0273702 81.0036462,54.8549305 81.0897416,54.5099198 C81.1758371,54.1647779 81.0036462,53.8197672 80.6593952,53.7336129 C77.6473625,52.8711517 75.9261075,54.6823596 75.4097965,55.803546 C75.2377364,55.9761169 75.4097965,56.3211276 75.7540475,56.4935674" id="Fill-99" fill="#F34400"></path>
                <path d="M68.5250252,59.9436088 C68.6970852,59.9436088 68.9552408,59.8573233 69.0413362,59.6847524 C69.0413362,59.6847524 69.5577782,58.9948621 70.1601847,58.9085767 C70.5044357,58.9085767 70.8486867,58.9948621 71.1067114,59.2535874 C71.3649977,59.5123126 71.7952134,59.4261583 72.0534997,59.1673019 C72.3115244,58.9085767 72.2255598,58.4772805 71.9674043,58.2186864 C71.1929377,57.5285339 70.5044357,57.4423796 69.9879938,57.5285339 C68.7831807,57.7009737 68.0087141,58.6498514 67.9226186,58.8222912 C67.7504277,59.0811476 67.7504277,59.5123126 68.0946787,59.771169 C68.1807742,59.9436088 68.3529651,59.9436088 68.5250252,59.9436088" id="Fill-101" fill="#F34400"></path>
                <path d="M74.3771089,60.3747869 C74.4630735,60.4610723 74.6352644,60.4610723 74.7213599,60.4610723 C74.9795154,60.4610723 75.1515755,60.3747869 75.237671,60.1160617 C75.237671,60.0297762 76.0121376,58.8223043 77.2170815,58.9948752 C77.5613325,58.9948752 77.9055835,58.73615 77.9055835,58.3911393 C77.9055835,58.0461286 77.6472971,57.7009868 77.3030461,57.7009868 C75.237671,57.528547 74.1188225,59.4261714 74.1188225,59.5123257 C73.9467625,59.771051 74.1188225,60.2023471 74.3771089,60.3747869" id="Fill-103" fill="#F34400"></path>
                <path d="M23.3436718,54.8549174 C26.0115843,54.164896 26.9582418,55.9761038 27.0442064,56.1485435 C27.1303019,56.4073999 27.3885883,56.4935542 27.6467438,56.4935542 C27.7328393,56.4935542 27.8188039,56.4935542 27.9048993,56.4073999 C28.2491503,56.234829 28.3351149,55.8899494 28.2491503,55.5449387 C27.7328393,54.5099067 26.0115843,52.6986988 22.9994208,53.4748746 C22.6551698,53.56116 22.4831097,53.9061707 22.5692052,54.2511814 C22.6551698,54.7686319 22.9994208,54.9410717 23.3436718,54.8549174" id="Fill-105" fill="#F34400"></path>
                <path d="M32.5520915,59.3398204 C32.8963425,59.0810951 33.2405935,58.9086553 33.498749,58.9948097 C34.0151909,59.0810951 34.531502,59.5122602 34.7035621,59.7711165 C34.7896576,59.9435563 35.0478131,60.0298418 35.220004,60.0298418 C35.3920641,60.0298418 35.4781595,60.0298418 35.564255,59.9435563 C35.8224105,59.7711165 35.9083752,59.3398204 35.7363151,58.9948097 C35.6503505,58.9086553 34.875753,57.8736233 33.6709399,57.7011835 C33.154498,57.614898 32.4661269,57.7011835 31.6915294,58.3912049 C31.4333739,58.649799 31.3472784,58.9948097 31.6055648,59.3398204 C31.8635895,59.5122602 32.2078405,59.5986767 32.5520915,59.3398204" id="Fill-107" fill="#F34400"></path>
                <path d="M25.6673071,58.3911524 C25.6673071,58.7361631 26.0115581,58.9948884 26.3558091,58.9948884 C27.560753,58.9086029 28.3352196,60.1160748 28.3352196,60.1160748 C28.4213151,60.2886457 28.6794706,60.4610855 28.8515307,60.4610855 C28.9376261,60.4610855 29.1098171,60.4610855 29.1957817,60.3748 C29.5400327,60.2023602 29.6261281,59.7710641 29.4539372,59.5123388 C29.3678418,59.4261845 28.2491242,57.5286912 26.2697136,57.701131 C25.9255935,57.7874165 25.6673071,58.0461417 25.6673071,58.3911524" id="Fill-109" fill="#F34400"></path>
            </g>
        </g>
    </g>
</svg>