<?xml version="1.0" encoding="UTF-8"?>
<svg width="99px" height="100px" viewBox="0 0 99 100" version="1.1" xmlns="http://www.w3.org/2000/svg" xmlns:xlink="http://www.w3.org/1999/xlink">
    <!-- Generator: Sketch 42 (36781) - http://www.bohemiancoding.com/sketch -->
    <title>Group</title>
    <desc>Created with Sketch.</desc>
    <defs></defs>
    <g id="Welcome" stroke="none" stroke-width="1" fill="none" fill-rule="evenodd">
        <g id="Artboard" transform="translate(-568.000000, -1282.000000)">
            <g id="Group" transform="translate(568.000000, 1282.000000)">
                <path d="M78.9998706,89.9462206 L85.3973214,89.9462206 L85.3973214,61.2914745 L78.9998706,61.2914745 L78.9998706,89.9462206 Z M85.3973214,95.3334829 C85.3973214,96.8171108 84.2270531,97.9881774 82.7447054,97.9881774 L81.7305361,97.9881774 C80.2481884,97.9881774 79.0778015,96.8171108 79.0778015,95.3334829 L79.0778015,91.1172872 L85.4752523,91.1172872 L85.4752523,95.3334829 L85.3973214,95.3334829 Z M82.198596,53.4055017 L85.1631729,60.1202893 L79.2340192,60.1202893 L82.198596,53.4055017 Z M86.5675897,60.6668266 L86.5675897,60.5107239 L86.5675897,60.1202893 L82.8227549,51.6878979 C82.6666559,51.2973445 81.9644475,51.2973445 81.7305361,51.6878979 L77.9855827,60.1202893 C77.9076518,60.2763919 77.9076518,60.3545026 77.9855827,60.5107239 L77.9855827,60.6668266 L77.9855827,95.3334829 C77.9855827,97.4416401 79.702079,99.1593626 81.808467,99.1593626 L82.8227549,99.1593626 C84.9292616,99.1593626 86.6455206,97.4416401 86.6455206,95.3334829 L86.6455206,90.5707499 L86.6455206,60.6668266 L86.5675897,60.6668266 Z" id="Fill-1" fill="#29064F"></path>
                <path d="M82.198596,78.781024 C82.5106755,78.781024 82.8227549,78.546692 82.8227549,78.1562574 L82.8227549,75.033255 C82.8227549,74.720931 82.588725,74.408607 82.198596,74.408607 C81.8865166,74.408607 81.5744371,74.6428203 81.5744371,75.033255 L81.5744371,78.1562574 C81.6524866,78.546692 81.8865166,78.781024 82.198596,78.781024" id="Fill-3" fill="#29064F"></path>
                <path d="M82.198596,70.9731025 C82.5106755,70.9731025 82.8227549,70.7388892 82.8227549,70.3484546 L82.8227549,67.2254522 C82.8227549,66.9131282 82.588725,66.6008042 82.198596,66.6008042 C81.8865166,66.6008042 81.5744371,66.8350175 81.5744371,67.2254522 L81.5744371,70.3484546 C81.6524866,70.6607786 81.8865166,70.9731025 82.198596,70.9731025" id="Fill-4" fill="#29064F"></path>
                <path d="M82.198596,86.588815 C82.5106755,86.588815 82.8227549,86.354483 82.8227549,85.964167 L82.8227549,82.8410459 C82.8227549,82.5287219 82.588725,82.2163979 82.198596,82.2163979 C81.8865166,82.2163979 81.5744371,82.4507299 81.5744371,82.8410459 L81.5744371,85.964167 C81.6524866,86.354483 81.8865166,86.588815 82.198596,86.588815" id="Fill-5" fill="#29064F"></path>
                <path d="M57.4672188,46.9250937 C56.0629205,52.3905853 50.5236586,55.6698091 45.1404956,54.2644105 C39.6792831,52.8590119 36.4026268,47.3154096 37.806925,41.9280286 C38.5090148,39.2734529 40.147343,37.087185 42.4878796,35.6817864 C44.0482768,34.7449332 45.842704,34.2763878 47.6370126,34.2763878 C48.4952014,34.2763878 49.3535089,34.3543798 50.1336482,34.5887118 C52.7861456,35.2913517 54.9705832,36.9310823 56.375,39.2734529 C57.7792982,41.537594 58.1693086,44.2703992 57.4672188,46.9250937 M61.8360939,47.3935203 L58.715418,46.6127697 C59.261646,43.9580752 58.7934675,41.3814913 57.6231992,39.1173502 L60.3538647,37.4776196 C60.6659442,37.321517 60.7438751,36.9310823 60.5878947,36.6967503 C60.4317956,36.3844263 60.0417853,36.3064344 59.8076367,36.462537 L57.0770898,38.1022676 C55.6727916,35.9941104 53.5662849,34.3543798 50.9917184,33.5736292 L51.7718577,30.4506268 C51.8500259,30.1381841 51.6939268,29.8258601 51.3818474,29.7478681 C51.0697679,29.6697575 50.7578071,29.8258601 50.679639,30.1381841 L49.8994997,33.2613052 C47.3249331,32.7147679 44.7503666,33.1052026 42.4099487,34.3543798 L40.693571,31.6216933 C40.537472,31.3093694 40.147343,31.2313774 39.9134317,31.38748 C39.6013522,31.5437014 39.5233027,31.9340173 39.6792831,32.1682306 L41.3177299,34.9010358 C39.1332924,36.3844263 37.5727765,38.4927022 36.7926372,40.9911754 L33.6720799,40.2104248 C33.3600004,40.1321954 33.047921,40.2884168 32.9698715,40.6007407 C32.8918219,40.912946 33.047921,41.22527 33.3600004,41.3034994 L36.4805577,42.08425 C35.9345669,44.6608338 36.3245773,47.2374176 37.5727765,49.5796694 L34.8423482,51.2194 C34.5302687,51.3755027 34.4522192,51.7658186 34.6081996,52.0001506 C34.6862491,52.1562533 34.9202791,52.3124746 35.0762595,52.3124746 C35.1544276,52.3124746 35.310408,52.3124746 35.3883389,52.2344827 L38.1190045,50.5947521 C39.6013522,52.7809012 41.7077403,54.3424024 44.2043759,55.1233905 L43.4241179,58.2463929 C43.3460684,58.5587169 43.5021674,58.8710408 43.8141283,58.9491515 L43.9702273,58.9491515 C44.2043759,58.9491515 44.4382872,58.7930489 44.5163367,58.4807249 L45.2965946,55.3574851 C46.076734,55.5137064 46.7789424,55.5918171 47.4810322,55.5918171 C49.3535089,55.5918171 51.1478175,55.1233905 52.7861456,54.2644105 L54.4245924,56.9972157 C54.5025233,57.1533183 54.7365532,57.3095396 54.8926523,57.3095396 C54.9705832,57.3095396 55.1266822,57.3095396 55.2047317,57.2313103 C55.5168112,57.0752076 55.5947421,56.6848917 55.4387616,56.4505597 L53.8004335,53.7178732 C55.9069401,52.3124746 57.5451497,50.2043174 58.3254076,47.6277336 L61.4460835,48.4086029 L61.6020639,48.4086029 C61.8362125,48.4086029 62.0702424,48.2525003 62.1482919,47.9400576 C62.3823219,47.7838362 62.1481733,47.471631 61.8360939,47.3935203" id="Fill-6" fill="#F34400"></path>
                <path d="M52.8642307,45.6757502 C52.1620223,48.5646581 49.1974454,50.2824993 46.3887304,49.5797407 C44.9844322,49.1894247 43.8141639,48.3304447 43.1120741,47.1592595 C42.4098656,45.9100823 42.1758357,44.5046837 42.4879152,43.0992851 C43.1120741,40.6788039 45.2965116,39.0391921 47.7150977,39.0391921 C48.1831576,39.0391921 48.5731679,39.1173027 49.0413464,39.1952947 C51.8499428,39.8980533 53.5663205,42.8649531 52.8642307,45.6757502 M49.2753763,38.0241094 C45.7645715,37.1653669 42.2538852,39.2734054 41.3176469,42.7869611 C40.849587,44.5046837 41.1616665,46.2222875 42.0197367,47.7059155 C42.8780441,49.1894247 44.3603919,50.2824993 45.9986014,50.6728153 C46.5448294,50.8289179 47.0909388,50.9070286 47.6370482,50.9070286 C50.5236941,50.9070286 53.2542411,48.9550927 53.9564495,45.9881929 C54.8145197,42.4746372 52.7081317,38.9610814 49.2753763,38.0241094" id="Fill-7" fill="#F34400"></path>
                <path d="M2.30913885,62.6188337 C1.99705939,62.6188337 1.68497994,62.853047 1.68497994,63.2434816 L1.68497994,72.6127263 C1.68497994,72.9250503 1.91912849,73.2373743 2.30913885,73.2373743 C2.6212183,73.2373743 2.93329775,73.0032796 2.93329775,72.6127263 L2.93329775,63.2434816 C2.93329775,62.853047 2.6212183,62.6188337 2.30913885,62.6188337" id="Fill-8" fill="#F34400"></path>
                <path d="M2.30913885,75.1112351 C1.99705939,75.1112351 1.68497994,75.3455671 1.68497994,75.7360017 L1.68497994,78.7810122 C1.68497994,79.0933362 1.91912849,79.4056601 2.30913885,79.4056601 C2.6212183,79.4056601 2.93329775,79.1713281 2.93329775,78.7810122 L2.93329775,75.7360017 C2.93329775,75.3455671 2.6212183,75.1112351 2.30913885,75.1112351" id="Fill-9" fill="#F34400"></path>
                <path d="M92.1847233,21.7839034 C92.4969214,21.7839034 92.8090008,21.5495713 92.8090008,21.1592554 L92.8090008,11.789892 C92.8090008,11.477568 92.5748523,11.1652441 92.1847233,11.1652441 C91.8726438,11.1652441 91.5605644,11.3994574 91.5605644,11.789892 L91.5605644,21.1592554 C91.5605644,21.4715794 91.8726438,21.7839034 92.1847233,21.7839034" id="Fill-10" fill="#F34400"></path>
                <path d="M91.5606,27.3274107 C91.5606,27.6397347 91.7947485,27.9520587 92.1848775,27.9520587 C92.496957,27.9520587 92.8089178,27.7178454 92.8089178,27.3274107 L92.8089178,24.2824003 C92.8089178,23.9700763 92.5748879,23.6577523 92.1848775,23.6577523 C91.8726794,23.6577523 91.5606,23.8920843 91.5606,24.2824003 L91.5606,27.3274107 Z" id="Fill-11" fill="#F34400"></path>
                <path d="M4.80575073,88.3065138 C4.57160218,88.0721818 4.18147321,88.0721818 3.9475619,88.3065138 C3.71341335,88.5407271 3.71341335,88.9311617 3.9475619,89.1653751 L5.2738106,90.492663 C5.35186012,90.5707736 5.50784054,90.6487656 5.66382095,90.6487656 C5.81991999,90.6487656 5.97590041,90.5707736 6.05394992,90.492663 C6.28797986,90.2584496 6.28797986,89.868015 6.05394992,89.6339204 L4.80575073,88.3065138 Z" id="Fill-12" fill="#F34400"></path>
                <path d="M8.94064333,92.4446344 C8.70649478,92.2104211 8.31648443,92.2104211 8.08245449,92.4446344 C7.84842456,92.6789664 7.84842456,93.0692824 8.08245449,93.3034957 L9.4087032,94.6307836 C9.48675272,94.7088943 9.64273313,94.7868862 9.79871355,94.7868862 C9.95481259,94.7868862 10.110793,94.7088943 10.1888425,94.6307836 C10.4228725,94.3965703 10.4228725,94.0061356 10.1888425,93.772041 L8.94064333,92.4446344 Z" id="Fill-13" fill="#F34400"></path>
                <path d="M5.27384619,92.4446344 L3.94747886,93.772041 C3.71344893,94.0061356 3.71344893,94.3965703 3.94747886,94.6307836 C4.02552838,94.7088943 4.1815088,94.7868862 4.33760783,94.7868862 C4.49370687,94.7868862 4.64968728,94.7088943 4.7277368,94.6307836 L6.05398551,93.3034957 C6.28801544,93.0692824 6.28801544,92.6789664 6.05398551,92.4446344 C5.81995557,92.2104211 5.50787612,92.2104211 5.27384619,92.4446344" id="Fill-14" fill="#F34400"></path>
                <path d="M9.40873879,88.3065138 L8.08237146,89.6339204 C7.84846014,89.868015 7.84846014,90.2584496 8.08237146,90.492663 C8.1605396,90.5707736 8.31652001,90.6487656 8.47250043,90.6487656 C8.62859947,90.6487656 8.78457988,90.5707736 8.8626294,90.492663 L10.1888781,89.1653751 C10.422908,88.9311617 10.422908,88.5407271 10.1888781,88.3065138 C10.0328977,88.0721818 9.64276872,88.0721818 9.40873879,88.3065138" id="Fill-15" fill="#F34400"></path>
                <path d="M92.5748523,51.6878385 C92.3407037,51.4535065 91.9506934,51.4535065 91.7166634,51.6878385 C91.4826335,51.9220518 91.4826335,52.3124865 91.7166634,52.5466998 L93.0429121,53.8739877 C93.1209617,53.9520984 93.2770607,54.0300903 93.4330411,54.0300903 C93.5891401,54.0300903 93.7451206,53.9520984 93.8230515,53.8739877 C94.0572,53.6397744 94.0572,53.2493397 93.8230515,53.0152451 L92.5748523,51.6878385 Z" id="Fill-16" fill="#F34400"></path>
                <path d="M96.7878181,55.825971 C96.5536696,55.591639 96.1636592,55.591639 95.9296293,55.825971 C95.6955993,56.0603031 95.6955993,56.450619 95.9296293,56.6848323 L97.255878,58.0121202 C97.3339275,58.0902309 97.4899079,58.1682228 97.6458883,58.1682228 C97.8019874,58.1682228 97.9579678,58.0902309 98.0360173,58.0121202 C98.2700472,57.7779069 98.2700472,57.3874722 98.0360173,57.1533776 L96.7878181,55.825971 Z" id="Fill-17" fill="#F34400"></path>
                <path d="M93.0429477,55.825971 L91.7165804,57.1533776 C91.4826691,57.3874722 91.4826691,57.7779069 91.7165804,58.0121202 C91.7947485,58.0902309 91.950729,58.1682228 92.1067094,58.1682228 C92.2628084,58.1682228 92.4187888,58.0902309 92.4968383,58.0121202 L93.823087,56.6848323 C94.0572356,56.450619 94.0572356,56.0603031 93.823087,55.825971 C93.6671066,55.591639 93.2770963,55.591639 93.0429477,55.825971" id="Fill-18" fill="#F34400"></path>
                <path d="M96.3197227,53.952134 C96.4757031,53.952134 96.6318021,53.8740233 96.709733,53.7960313 L98.0361003,52.4686247 C98.2700116,52.2344114 98.2700116,51.8439768 98.0361003,51.6097635 C97.8019518,51.3755502 97.4119414,51.3755502 97.1777929,51.6097635 L95.8515442,52.9370514 C95.6175142,53.1713834 95.6175142,53.5616993 95.8515442,53.7960313 C96.0855741,53.952134 96.2416731,53.952134 96.3197227,53.952134" id="Fill-19" fill="#F34400"></path>
                <path d="M1.45102118,13.585654 C1.52895208,13.6637647 1.68505111,13.7417567 1.84103153,13.7417567 C1.99713056,13.7417567 2.15311098,13.6637647 2.2311605,13.585654 C2.46519043,13.351322 2.46519043,12.9610061 2.2311605,12.7267928 L0.904911793,11.3995049 C0.670763242,11.1651728 0.28075289,11.1651728 0.0466043392,11.3995049 C-0.0313265614,11.7118288 -0.0313265614,12.1021448 0.202703373,12.3364768 L1.45102118,13.585654 Z" id="Fill-20" fill="#F34400"></path>
                <path d="M5.6638684,17.801921 C5.74191792,17.8799129 5.89801695,17.9580236 6.05399737,17.9580236 C6.20997779,17.9580236 6.36607682,17.8799129 6.44400772,17.801921 C6.67815627,17.5675889 6.67815627,17.177273 6.44400772,16.9430597 L5.11775901,15.6156531 C4.88372908,15.3814398 4.49371873,15.3814398 4.25957018,15.6156531 C4.02542163,15.8499851 4.02542163,16.240301 4.25957018,16.4745144 L5.6638684,17.801921 Z" id="Fill-21" fill="#F34400"></path>
                <path d="M2.30913885,15.6937875 C2.07510891,15.4594555 1.68497994,15.4594555 1.45106862,15.6937875 L0.124701303,17.0211941 C-0.0312791149,17.1772967 -0.0312791149,17.5676127 0.202632203,17.8019447 C0.28068172,17.8799367 0.436780754,17.9580473 0.592761171,17.9580473 C0.748860205,17.9580473 0.904840623,17.8799367 0.98289014,17.8019447 L2.30913885,16.4745381 C2.5432874,16.2403248 2.5432874,15.9280008 2.30913885,15.6937875" id="Fill-22" fill="#F34400"></path>
                <path d="M4.72767749,13.8199504 C4.88365791,13.8199504 5.03975694,13.7418398 5.11780646,13.6638478 L6.44405517,12.3364412 C6.6780851,12.1021092 6.6780851,11.7117932 6.44405517,11.4775799 C6.21002523,11.2433666 5.81989626,11.2433666 5.58586633,11.4775799 L4.25961762,12.8048678 C4.02546907,13.0390811 4.02546907,13.4295158 4.25961762,13.6638478 C4.49364756,13.7418398 4.64974659,13.8199504 4.72767749,13.8199504" id="Fill-23" fill="#F34400"></path>
                <path d="M16.3521922,4.06016429 C17.2103811,4.06016429 17.990639,4.76280422 17.990639,5.69977617 C17.990639,6.55863745 17.2884306,7.33938805 16.3521922,7.33938805 C15.494122,7.33938805 14.7138641,6.63662941 14.7138641,5.69977617 C14.7138641,4.76280422 15.494122,4.06016429 16.3521922,4.06016429 M16.3521922,8.43246264 C17.9125895,8.43246264 19.1609073,7.18328541 19.1609073,5.6216655 C19.1609073,4.06016429 17.9125895,2.81086836 16.3521922,2.81086836 C14.7919136,2.81086836 13.5435958,4.06016429 13.5435958,5.6216655 C13.5435958,7.18328541 14.7919136,8.43246264 16.3521922,8.43246264" id="Fill-24" fill="#F34400"></path>
                <path d="M69.0917335,80.3425609 C68.2335447,80.3425609 67.4532867,79.6398022 67.4532867,78.7028303 C67.4532867,77.843969 68.1554952,77.0632184 69.0917335,77.0632184 C69.9499224,77.0632184 70.7301803,77.765977 70.7301803,78.7028303 C70.7301803,79.5618103 70.0279719,80.3425609 69.0917335,80.3425609 M69.0917335,75.8921518 C67.5314549,75.8921518 66.2831371,77.1413291 66.2831371,78.7028303 C66.2831371,80.2644502 67.5314549,81.5136274 69.0917335,81.5136274 C70.6520122,81.5136274 71.90033,80.2644502 71.90033,78.7028303 C71.90033,77.1413291 70.6520122,75.8921518 69.0917335,75.8921518" id="Fill-25" fill="#F34400"></path>
                <path d="M21.891478,84.9491437 C20.4870611,84.9491437 19.3169114,83.7779585 19.3169114,82.3725599 C19.3169114,80.9671613 20.4870611,79.7959761 21.891478,79.7959761 C23.2957762,79.7959761 24.4660445,80.9671613 24.4660445,82.3725599 C24.4660445,83.7779585 23.2957762,84.9491437 21.891478,84.9491437 M21.891478,78.6247908 C19.7849713,78.6247908 18.1466432,80.3425134 18.1466432,82.3725599 C18.1466432,84.4807171 19.8629022,86.120329 21.891478,86.120329 C23.997866,86.120329 25.6361941,84.4026064 25.6361941,82.3725599 C25.6361941,80.2644027 23.9199351,78.6247908 21.891478,78.6247908" id="Fill-26" fill="#F34400"></path>
                <path d="M77.0494393,2.73280517 L87.1917249,2.73280517 C87.5038043,2.73280517 87.8158838,2.49847315 87.8158838,2.10815721 C87.8158838,1.71772255 87.5817352,1.48362795 87.1917249,1.48362795 L77.0494393,1.48362795 C76.7373598,1.48362795 76.4252804,1.71772255 76.4252804,2.10815721 C76.4252804,2.49847315 76.7373598,2.73280517 77.0494393,2.73280517" id="Fill-27" fill="#F34400"></path>
                <path d="M93.8231108,1.56159617 L90.5464545,1.56159617 C90.234375,1.56159617 89.9222955,1.79592819 89.9222955,2.18624414 C89.9222955,2.57667879 90.1563255,2.81077339 90.5464545,2.81077339 L93.8231108,2.81077339 C94.1351902,2.81077339 94.4472697,2.57667879 94.4472697,2.18624414 C94.4472697,1.79592819 94.1351902,1.56159617 93.8231108,1.56159617" id="Fill-28" fill="#F34400"></path>
                <path d="M93.8231108,5.07511634 L86.7235701,5.07511634 C86.4116093,5.07511634 86.0995298,5.30944835 86.0995298,5.6997643 C86.0995298,6.09019896 86.3334412,6.32429356 86.7235701,6.32429356 L93.8231108,6.32429356 C94.1351902,6.32429356 94.4472697,6.09019896 94.4472697,5.6997643 C94.4472697,5.30944835 94.1351902,5.07511634 93.8231108,5.07511634" id="Fill-29" fill="#F34400"></path>
                <path d="M83.6809556,6.24632534 C83.9930351,6.24632534 84.3051145,6.01199332 84.3051145,5.62167737 C84.3051145,5.23124271 83.9930351,5.07514008 83.6809556,5.07514008 L81.4184686,5.07514008 C81.1063891,5.07514008 80.7943097,5.30935339 80.7943097,5.69978804 C80.7943097,6.0902227 81.0283396,6.3243173 81.4184686,6.3243173 L83.6809556,6.3243173 L83.6809556,6.24632534 Z" id="Fill-30" fill="#F34400"></path>
                <path d="M78.9218211,44.5826757 C78.6097416,44.5826757 78.3757117,44.8170077 78.2976622,45.1292129 C78.2976622,45.4415369 78.5318107,45.7538609 78.8438902,45.7538609 L91.8727032,45.8319716 C92.184664,45.8319716 92.4967434,45.5977583 92.4967434,45.2854343 C92.4967434,44.9731103 92.2628321,44.6607863 91.9507527,44.6607863 L78.9218211,44.5826757 Z" id="Fill-31" fill="#29064F"></path>
                <path d="M78.2976978,37.7899317 L85.7093178,35.3694505 C86.0213973,35.2913399 86.1774963,34.9010239 86.0994468,34.6666919 C86.0213973,34.3544866 85.6312683,34.1982653 85.397357,34.276376 L77.9856183,36.6967384 C77.6735389,36.7748491 77.5175584,37.1652838 77.595608,37.3994971 C77.6735389,37.6338291 77.9076874,37.7899317 78.1417173,37.7899317 L78.2976978,37.7899317 Z" id="Fill-32" fill="#29064F"></path>
                <path d="M47.6370126,14.2102783 C47.949092,14.2102783 48.2611715,13.9760649 48.2611715,13.5856303 L48.2611715,0.624719191 C48.2611715,0.312395208 48.0271416,7.12255378e-05 47.6370126,7.12255378e-05 C47.3249331,7.12255378e-05 47.0128537,0.234284535 47.0128537,0.624719191 L47.0128537,13.663741 C47.0128537,13.9760649 47.3249331,14.2102783 47.6370126,14.2102783" id="Fill-33" fill="#29064F"></path>
                <path d="M31.1755273,18.2703832 C31.2534582,18.4264858 31.4876068,18.5827072 31.6435872,18.5827072 C31.7216367,18.5827072 31.8776171,18.5827072 31.9556666,18.5045965 C32.2677461,18.3483752 32.345677,17.9580592 32.1896966,17.7238459 L25.5583344,6.48053865 C25.4022354,6.16821466 25.0121064,6.0902227 24.7780765,6.24632534 C24.4661156,6.40242797 24.3879475,6.79274392 24.5440465,7.02707594 L31.1755273,18.2703832 Z" id="Fill-34" fill="#29064F"></path>
                <path d="M8.78461547,23.5797247 L20.0970508,29.9820696 C20.2531498,30.0601803 20.3310807,30.0601803 20.4091302,30.0601803 C20.6431602,30.0601803 20.7991406,29.9820696 20.9552396,29.7478563 C21.1113386,29.4355323 21.0332891,29.1232083 20.7212097,28.9671057 L9.40877437,22.5646421 C9.09669492,22.4085395 8.78461547,22.4865314 8.62863505,22.7988554 C8.3944865,23.0331874 8.47253602,23.4235034 8.78461547,23.5797247" id="Fill-35" fill="#29064F"></path>
                <path d="M16.9763156,45.1292723 C16.9763156,44.8169483 16.7422856,44.582735 16.3521567,44.582735 L3.32334369,44.582735 C3.01138285,44.582735 2.6993034,44.8169483 2.7772343,45.207383 C2.7772343,45.519707 3.01138285,45.7539203 3.4013932,45.7539203 L16.3521567,45.6758096 C16.6642361,45.6758096 16.9763156,45.4415963 16.9763156,45.1292723" id="Fill-36" fill="#29064F"></path>
                <path d="M8.86257009,67.5377287 C8.94061961,67.6938313 9.17464954,67.8500526 9.40867948,67.8500526 C9.48672899,67.8500526 9.64270941,67.8500526 9.72075893,67.771942 L20.9551447,61.2133757 C21.2673428,61.0571544 21.3452737,60.6668385 21.1892933,60.4325064 C21.0331942,60.1203012 20.6430653,60.0421905 20.4091539,60.1984118 L9.01855051,66.7569781 C8.78463919,66.9130807 8.70658967,67.2254047 8.86257009,67.5377287" id="Fill-37" fill="#29064F"></path>
                <path d="M85.9433478,22.6426815 L74.6309125,29.0451451 C74.318833,29.2012478 74.2409021,29.5916824 74.3968825,29.8258957 C74.4748134,29.9819984 74.708962,30.1383384 74.9429919,30.1383384 C75.0210415,30.1383384 75.1770219,30.1383384 75.2550714,30.060109 L86.5676253,23.6577642 C86.8797048,23.5015428 86.9576357,23.1111082 86.8015366,22.8770136 C86.5676253,22.5646896 86.2555459,22.4865789 85.9433478,22.6426815" id="Fill-38" fill="#29064F"></path>
                <path d="M63.3184535,18.5045609 C63.396503,18.5826716 63.552602,18.5826716 63.6305329,18.5826716 C63.8645628,18.5826716 64.0206619,18.5045609 64.0985928,18.2703476 L70.7300735,7.02704033 C70.8861726,6.71483505 70.8081231,6.40251107 70.4960436,6.24628972 C70.1839642,6.09018709 69.8718847,6.16817905 69.7159043,6.48050303 L63.0844235,17.7238103 C62.9284431,17.9580236 63.006374,18.3484583 63.3184535,18.5045609" id="Fill-39" fill="#29064F"></path>
                <path d="M39.679295,14.5225785 C39.7573445,14.7569105 39.9913744,14.9130132 40.2254044,14.9130132 L40.3815034,14.9130132 C40.6935829,14.8349025 40.8495633,14.5225785 40.7715138,14.2102545 L38.4310958,6.71483505 C38.3529277,6.40251107 38.0408482,6.24628972 37.7288874,6.32428169 C37.4168079,6.40251107 37.2607089,6.71483505 37.338877,7.02704033 L39.679295,14.5225785 Z" id="Fill-40" fill="#29064F"></path>
                <path d="M25.5582751,22.6426815 C25.636206,22.7207922 25.792305,22.7987842 25.9482855,22.7987842 C26.1043845,22.7987842 26.2603649,22.7207922 26.4163453,22.6426815 C26.6504939,22.4084682 26.6504939,22.0180336 26.4163453,21.783939 L20.6430534,16.47455 C20.4091421,16.240218 20.0190131,16.240218 19.7849832,16.47455 C19.5508346,16.7087633 19.5508346,17.0991979 19.7849832,17.3334112 L25.5582751,22.6426815 Z" id="Fill-41" fill="#29064F"></path>
                <path d="M18.068653,36.2282881 C18.1465839,35.9159641 17.9126725,35.6036401 17.6004745,35.5256482 L9.95482445,33.8079256 C9.642745,33.7298149 9.33066555,33.9641469 9.25273464,34.2764709 C9.17468513,34.5886762 9.40871506,34.9010002 9.72079451,34.9791109 L17.3664445,36.6967147 L17.5225436,36.6967147 C17.7565735,36.6967147 17.9906034,36.5406121 18.068653,36.2282881" id="Fill-42" fill="#29064F"></path>
                <path d="M9.48669341,54.2644342 C9.17461396,54.3424262 9.01863354,54.7328608 9.09668306,54.9670742 C9.17461396,55.2014062 9.40876251,55.3575088 9.64267383,55.3575088 L9.79877286,55.3575088 L17.2883238,53.015257 C17.6004033,52.9370276 17.7566209,52.5467117 17.6785714,52.3124984 C17.6004033,52.0001744 17.2103929,51.843953 16.976363,51.9220637 L9.48669341,54.2644342 Z" id="Fill-43" fill="#29064F"></path>
                <path d="M19.7069218,73.1593704 C19.8629022,73.1593704 20.0190013,73.0812597 20.1749817,73.0032678 L25.4022828,67.2254522 C25.6361941,66.9911201 25.6361941,66.6008042 25.3241147,66.3664722 C25.0902034,66.1323776 24.7000744,66.1323776 24.4660445,66.4447016 L19.2388619,72.2222798 C19.004832,72.4566118 19.004832,72.8470464 19.3169114,73.0812597 C19.4728919,73.0812597 19.5509414,73.1593704 19.7069218,73.1593704" id="Fill-44" fill="#29064F"></path>
                <path d="M69.7158568,23.4234559 C69.7939064,23.5015666 69.9500054,23.5796772 70.1059858,23.5796772 C70.2619662,23.5796772 70.4180653,23.5015666 70.5740457,23.3454639 L75.8012282,17.4896563 C76.0352582,17.2553243 76.0352582,16.8650084 75.7231787,16.6306763 C75.4891488,16.396463 75.0990198,16.396463 74.8649899,16.708787 L69.6379259,22.5647133 C69.4818269,22.7988079 69.4818269,23.1892426 69.7158568,23.4234559" id="Fill-45" fill="#29064F"></path>
                <path d="M55.9848592,15.2253253 L56.1408396,15.2253253 C56.3749881,15.2253253 56.6870676,15.0692226 56.6870676,14.7568986 L58.3252771,7.10525784 C58.4034453,6.79281514 58.1692967,6.48049116 57.8572173,6.4024992 C57.5451378,6.32438852 57.2330584,6.55860183 57.1551275,6.87092582 L55.5167993,14.5225666 C55.4387498,14.8348906 55.6727797,15.1472146 55.9848592,15.2253253" id="Fill-46" fill="#29064F"></path>
                <path d="M46.0766984,90.8049632 C45.7646189,90.8049632 45.4525395,91.0392952 45.4525395,91.4296112 L45.4525395,94.9430482 C45.4525395,95.2554909 45.6865694,95.5678149 46.0766984,95.5678149 C46.4668273,95.5678149 46.7008573,95.3334829 46.7008573,94.9430482 L46.7008573,91.4296112 C46.7008573,91.1172872 46.3887778,90.8049632 46.0766984,90.8049632" id="Fill-47" fill="#29064F"></path>
                <path d="M49.2754001,90.8049632 C48.9633206,90.8049632 48.6512412,91.0392952 48.6512412,91.4296112 L48.6512412,94.9430482 C48.6512412,95.2554909 48.8852711,95.5678149 49.2754001,95.5678149 C49.5874795,95.5678149 49.899559,95.3334829 49.899559,94.9430482 L49.899559,91.4296112 C49.899559,91.1172872 49.5874795,90.8049632 49.2754001,90.8049632" id="Fill-48" fill="#29064F"></path>
                <path d="M67.9214296,25.2192772 C67.6873997,25.4536093 67.6873997,25.8439252 67.8434987,26.0781385 C68.3115586,26.6246758 68.8577866,27.2494425 69.247797,27.7958611 C69.3258465,27.9520824 69.5598764,28.0301931 69.7158568,28.0301931 C69.8718373,28.0301931 69.9500054,27.9520824 70.1059858,27.8739717 C70.3400157,27.6397584 70.4180653,27.3274344 70.1839167,27.0151105 C69.7158568,26.3904625 69.1697475,25.7658145 68.701569,25.2192772 C68.5455886,25.0631746 68.1555782,25.0631746 67.9214296,25.2192772" id="Fill-49" fill="#29064F"></path>
                <path d="M63.2404988,21.2373067 C63.0845184,21.4716387 63.0845184,21.8619547 63.3964793,22.0180573 C64.0206382,22.4864839 64.6447971,22.8770373 65.1907878,23.4234559 C65.268956,23.5015666 65.4249364,23.5796772 65.5809168,23.5796772 C65.7370158,23.5796772 65.8929962,23.5015666 66.0490953,23.3454639 C66.2831252,23.1111319 66.2050757,22.7208159 65.9711644,22.4864839 C65.3468869,22.0180573 64.722728,21.4716387 64.0985691,21.0812041 C63.7866082,20.9249827 63.4745288,21.0030934 63.2404988,21.2373067" id="Fill-50" fill="#29064F"></path>
                <path d="M57.857241,18.4265333 C57.7012606,18.7388573 57.857241,19.0511813 58.1693204,19.2072839 C58.8715289,19.5196079 59.5737373,19.8319319 60.1977776,20.1442559 C60.2758271,20.2223665 60.3538766,20.2223665 60.4318075,20.2223665 C60.665956,20.2223665 60.8219365,20.1442559 60.9780355,19.9099238 C61.1340159,19.5975999 60.9780355,19.2852759 60.7438869,19.1291732 C60.0417971,18.7388573 59.3395887,18.4265333 58.6373803,18.1142093 C58.3253009,17.9581067 57.9352905,18.1142093 57.857241,18.4265333" id="Fill-51" fill="#29064F"></path>
                <path d="M75.3330972,47.8620181 C75.0210177,47.7839074 74.7089383,48.0181208 74.6308888,48.3304447 C74.5529579,49.1111953 74.3968588,49.813954 74.2408784,50.5165939 C74.1628289,50.8289179 74.3968588,51.1412419 74.7089383,51.2193526 L74.8650373,51.2193526 C75.0989486,51.2193526 75.4110281,51.0632499 75.4110281,50.7509259 C75.5671271,49.9701753 75.7231075,49.1894247 75.8792066,48.4085554 C75.8792066,48.1743421 75.6451766,47.9400101 75.3330972,47.8620181" id="Fill-52" fill="#29064F"></path>
                <path d="M70.3399802,59.4956413 C69.9499698,60.1202893 69.4819099,60.7448185 69.0136128,61.2914745 C68.7797015,61.5256879 68.857751,61.9161225 69.091781,62.1503358 C69.1698305,62.2284465 69.3258109,62.3064385 69.4819099,62.3064385 C69.6378904,62.3064385 69.7938708,62.2284465 69.9499698,62.0722252 L71.354268,60.1984 C71.5102484,59.9640679 71.4321989,59.573752 71.198169,59.4176494 C70.8860895,59.1833173 70.5741287,59.261428 70.3399802,59.4956413" id="Fill-53" fill="#29064F"></path>
                <path d="M75.4110518,41.6937797 C75.0989724,41.6937797 74.8649424,42.0062224 74.8649424,42.3185464 C74.9429919,43.0211863 74.9429919,43.6457156 74.9429919,44.3484742 L74.9429919,44.5826875 C74.9429919,44.8950115 75.1770219,45.2074542 75.4891013,45.2074542 C75.8011808,45.2074542 76.1132602,44.9731222 76.1132602,44.6607982 L76.1132602,44.4265849 C76.1132602,43.723945 76.1132602,43.0211863 76.0353293,42.3185464 C75.9571612,41.9281117 75.7231313,41.6937797 75.4110518,41.6937797" id="Fill-54" fill="#29064F"></path>
                <path d="M67.3753796,64.1022361 C67.141231,63.8680228 66.7512207,63.8680228 66.5171907,64.1022361 C65.9710813,64.6487734 65.424972,65.1173187 64.8008131,65.5857453 C64.5666645,65.8200773 64.4887336,66.1324013 64.7227635,66.4446066 C64.8008131,66.6008279 65.034843,66.6788199 65.1908234,66.6788199 C65.3468038,66.6788199 65.424972,66.6008279 65.5809524,66.5227173 C66.2051113,66.0541719 66.7512207,65.5076346 67.3753796,64.9610973 C67.53136,64.726884 67.6094095,64.3365681 67.3753796,64.1022361" id="Fill-55" fill="#29064F"></path>
                <path d="M72.9145585,33.2613646 C72.992608,33.2613646 73.0705389,33.2613646 73.1487071,33.1832539 C73.4606679,33.0270325 73.5387174,32.7148273 73.4606679,32.4025033 C73.1487071,31.6998634 72.7585781,30.9971047 72.3684491,30.2944648 C72.2123501,29.9820221 71.8223398,29.9040301 71.5881912,30.0601328 C71.2761118,30.2163541 71.1981809,30.6067888 71.3542799,30.8408834 C71.7442902,31.4655313 72.0563697,32.16829 72.3684491,32.8709299 C72.5244296,33.1832539 72.7585781,33.2613646 72.9145585,33.2613646" id="Fill-56" fill="#29064F"></path>
                <path d="M74.1628052,35.7598258 C73.8507257,35.8379365 73.6947453,36.1502605 73.7727948,36.4625845 C74.0068247,37.1653431 74.1628052,37.9460937 74.3187856,38.6487337 C74.3969537,38.9610576 74.630865,39.117279 74.8650136,39.117279 L75.020994,39.117279 C75.3330735,39.0391683 75.5671034,38.7268443 75.4891725,38.4145203 C75.3330735,37.6337697 75.0990435,36.8529004 74.8650136,36.1502605 C74.7869641,35.8379365 74.4748846,35.6037232 74.1628052,35.7598258" id="Fill-57" fill="#29064F"></path>
                <path d="M73.8507494,53.795972 C73.53867,53.6398694 73.2265905,53.795972 73.0706101,54.108296 C72.8364616,54.8109359 72.5243821,55.5136945 72.2123027,56.2164532 C72.0563222,56.5287772 72.2123027,56.8409824 72.5243821,56.9972038 C72.6025503,57.0751957 72.6805998,57.0751957 72.7585307,57.0751957 C72.9926792,57.0751957 73.1486596,56.9190931 73.3046401,56.7628718 C73.6167195,56.0602318 73.928799,55.3574732 74.2408784,54.5767226 C74.3188093,54.2643986 74.1628289,53.9520746 73.8507494,53.795972" id="Fill-58" fill="#29064F"></path>
                <path d="M23.5297587,30.2944411 C23.2176792,30.1382197 22.9055998,30.2163304 22.7496193,30.5286544 C22.359609,31.231413 22.0475295,31.9340529 21.6574006,32.6366929 C21.5013015,32.9490168 21.6574006,33.2613408 21.96948,33.4175622 C22.0475295,33.4175622 22.1254604,33.4955541 22.20351,33.4955541 C22.4375399,33.4955541 22.6716884,33.3393328 22.7496193,33.1832302 C23.0616988,32.4805902 23.3737783,31.8559423 23.7639072,31.1531836 C23.9198876,30.8409783 23.8418381,30.4505437 23.5297587,30.2944411" id="Fill-59" fill="#29064F"></path>
                <path d="M52.3960285,17.4896207 C53.0982369,17.6457234 53.8783763,17.8019447 54.5805847,17.9580473 L54.7365651,17.9580473 C54.970595,17.9580473 55.2047436,17.8019447 55.2826745,17.4896207 C55.360724,17.1772967 55.2047436,16.8649728 54.8926641,16.7868621 C54.1125248,16.5525301 53.3323855,16.3964274 52.6301771,16.3184355 C52.3180976,16.2403248 52.0060182,16.4745381 51.9279686,16.7868621 C51.8499191,17.0991861 52.0839491,17.41151 52.3960285,17.4896207" id="Fill-60" fill="#29064F"></path>
                <path d="M21.0332535,35.915976 C20.7211741,35.837984 20.4090946,35.9940866 20.3310451,36.3064106 C20.0970152,37.0871612 19.9410348,37.7899199 19.7850543,38.5706705 C19.7068862,38.8829945 19.9410348,39.1953184 20.2531142,39.2734291 L20.4090946,39.2734291 C20.6431246,39.2734291 20.9553226,39.1173265 20.9553226,38.8050025 C21.1113031,38.1022439 21.2674021,37.3214932 21.5013134,36.6187346 C21.5793629,36.3844026 21.345333,35.9940866 21.0332535,35.915976" id="Fill-61" fill="#29064F"></path>
                <path d="M28.9130047,64.2583862 C28.6788561,64.0241729 28.2888458,64.0241729 28.0548158,64.2583862 C27.8207859,64.4927182 27.8207859,64.8830342 28.0548158,65.1172475 C28.6009252,65.6639035 29.2250841,66.2103221 29.849243,66.6788674 C29.9271739,66.7569781 30.0831543,66.83497 30.2392534,66.83497 C30.3952338,66.83497 30.5513328,66.7569781 30.7073132,66.6007567 C30.9414618,66.3665434 30.8632937,65.9762275 30.6293823,65.7418954 C30.0052234,65.2734688 29.459114,64.7268128 28.9130047,64.2583862" id="Fill-62" fill="#29064F"></path>
                <path d="M25.0121064,59.6517914 C24.856126,59.4175781 24.465997,59.3394675 24.2319671,59.4956888 C23.9978185,59.6517914 23.9198876,60.0422261 24.0758681,60.2764394 C24.5440465,60.9009687 25.0121064,61.5256166 25.4801663,62.1503833 C25.5582158,62.3064859 25.7922457,62.3845966 25.9483448,62.3845966 C26.1043252,62.3845966 26.1823747,62.3064859 26.3384737,62.2283753 C26.5723851,61.994162 26.6505532,61.6819567 26.4164046,61.369514 C25.8702952,60.9009687 25.4022354,60.2764394 25.0121064,59.6517914" id="Fill-63" fill="#29064F"></path>
                <path d="M20.6431127,48.5646581 C20.5651818,48.2523341 20.3310333,48.0181208 19.9410229,48.0962314 C19.6289435,48.1743421 19.3949135,48.4085554 19.472963,48.7989901 C19.6289435,49.5797407 19.7068744,50.3604913 19.9410229,51.1412419 C20.0189538,51.3755739 20.2531024,51.6096685 20.4871323,51.6096685 L20.6431127,51.6096685 C20.9553108,51.5316765 21.1892221,51.2193526 21.1112912,50.9070286 C20.9551922,50.0481673 20.7990931,49.3455274 20.6431127,48.5646581" id="Fill-64" fill="#29064F"></path>
                <path d="M19.2388263,42.4746609 C19.1608954,43.0993089 19.1608954,43.7238381 19.1608954,44.3484861 L19.1608954,44.8169127 C19.1608954,45.1292367 19.3948068,45.36345 19.7849357,45.36345 C20.0970152,45.36345 20.3310451,45.1292367 20.3310451,44.738802 L20.3310451,44.2703754 C20.3310451,43.6457275 20.3310451,43.0211982 20.4090946,42.4746609 C20.4090946,42.1622182 20.1750647,41.8498942 19.8629852,41.8498942 C19.5509058,41.9281236 19.2388263,42.1622182 19.2388263,42.4746609" id="Fill-65" fill="#29064F"></path>
                <path d="M39.7573682,17.6457708 C39.8352991,17.8799842 40.0694477,18.1141975 40.3034776,18.1141975 L40.459458,18.1141975 C41.1616665,17.8799842 41.9418058,17.7237628 42.6440142,17.6457708 C42.9560936,17.5676602 43.190005,17.2553362 43.1120741,16.9430122 C43.0340245,16.6306882 42.7219451,16.3964749 42.4098656,16.4745856 C41.6297263,16.6306882 40.849587,16.7869096 40.1473786,17.0211229 C39.8352991,17.0211229 39.6793187,17.3334469 39.7573682,17.6457708" id="Fill-66" fill="#29064F"></path>
                <path d="M46.3887541,17.0991742 L46.3887541,17.0991742 L47.6369533,17.0991742 L48.6512412,17.0991742 C48.9633206,17.0991742 49.2754001,16.8649609 49.2754001,16.5526369 C49.2754001,16.2403129 49.0413701,15.9279889 48.7291721,15.9279889 L47.6369533,15.9279889 L46.3107046,15.9279889 C45.9986251,15.9279889 45.7645952,16.2403129 45.7645952,16.5526369 C45.7645952,16.8649609 46.0766746,17.0991742 46.3887541,17.0991742" id="Fill-67" fill="#29064F"></path>
                <path d="M22.0475177,56.9190456 C22.1254486,57.1533776 22.3595971,57.2313696 22.5936271,57.2313696 C22.6716766,57.2313696 22.7496075,57.2313696 22.827657,57.1533776 C23.1397365,56.9971563 23.2176674,56.6848323 23.0616869,56.3725083 C22.7496075,55.6698684 22.437528,54.9671098 22.1254486,54.3424618 C21.9694682,54.0301378 21.6573887,53.8740352 21.3453093,54.0301378 C21.0332298,54.1862405 20.8772494,54.4985644 21.0332298,54.8108884 C21.4233588,55.5136471 21.7354382,56.2164057 22.0475177,56.9190456" id="Fill-68" fill="#29064F"></path>
                <path d="M34.6082115,20.3003822 C34.686261,20.3003822 34.7641919,20.3003822 34.9202909,20.2223903 C35.5444498,19.9099476 36.2466583,19.5196316 36.9486294,19.2852996 C37.2607089,19.129197 37.4168079,18.816873 37.2607089,18.504549 C37.1047285,18.192225 36.792649,18.0361224 36.4805696,18.192225 C35.7783612,18.504549 35.0762714,18.816873 34.3741815,19.2073077 C34.0621021,19.3634103 33.9840526,19.753845 34.1401516,19.9880583 C34.2182011,20.2223903 34.3741815,20.3003822 34.6082115,20.3003822" id="Fill-69" fill="#29064F"></path>
                <path d="M26.3384381,25.4535618 C25.7923288,26.0000991 25.3241503,26.6246283 24.8560904,27.249395 C24.6220605,27.4836083 24.6999914,27.874043 24.9341399,28.1081376 C25.0120708,28.1863669 25.1681699,28.2643589 25.3241503,28.2643589 C25.4802493,28.2643589 25.7142792,28.1863669 25.7923288,28.0301456 C26.2603886,27.4054976 26.7284485,26.8589603 27.1965084,26.3123043 C27.4306569,26.0782097 27.3526074,25.6877751 27.1185775,25.4535618 C26.962597,25.2192297 26.5724681,25.2192297 26.3384381,25.4535618" id="Fill-70" fill="#29064F"></path>
                <path d="M31.0194876,21.2373067 C30.3952101,21.7057333 29.7711698,22.1742787 29.1470109,22.7208159 C28.9129809,22.9550293 28.8349314,23.2673532 29.06908,23.5796772 C29.1470109,23.7358986 29.3810408,23.8138905 29.5371398,23.8138905 C29.6931203,23.8138905 29.7711698,23.7358986 29.9271502,23.6577879 C30.4733782,23.1892426 31.0974185,22.7208159 31.7215774,22.2523893 C31.9557259,22.096168 32.0336568,21.7057333 31.8775578,21.3934093 C31.6436465,21.1593147 31.2535175,21.0812041 31.0194876,21.2373067" id="Fill-71" fill="#29064F"></path>
                <path d="M59.3395887,72.0662958 L36.0125097,72.0662958 C34.4522311,66.6787962 32.3457244,61.5256285 29.6931084,56.8410062 L29.6931084,56.7628955 C29.537128,56.5286822 29.3811476,56.2163582 29.2250485,55.9821449 C29.0690681,55.7479316 28.9129691,55.5137183 28.7569887,55.2013943 C28.4449092,54.6547383 28.1328298,54.1863117 27.8207503,53.7178851 C26.3384026,50.6727559 25.5582632,47.3935321 25.5582632,43.958087 C25.5582632,37.8679474 28.1328298,32.0121399 32.5797544,27.8740548 C37.1047285,23.6577404 42.9560699,21.5495832 49.1193722,22.0180098 C60.1977776,22.7988791 69.0136959,31.6998159 69.5598053,42.8650125 C69.7939538,47.0812082 68.7796659,51.2194119 66.7512088,54.8109596 C66.7512088,54.8890703 66.6731593,54.8890703 66.6731593,54.8890703 C66.5171789,55.2013943 66.2831489,55.5137183 66.1271685,55.8259236 C63.3184535,60.7448779 60.9780355,66.2884802 59.3395887,72.0662958 L59.3395887,72.0662958 Z M58.0132214,77.4536768 L37.3387584,77.4536768 C37.0267976,76.0482782 36.7147181,74.6427609 36.3245892,73.2373624 L58.9495784,73.2373624 C58.6373803,74.6427609 58.3253009,76.0482782 58.0132214,77.4536768 L58.0132214,77.4536768 Z M57.3891811,80.8110112 C57.2330821,81.9821965 56.9991708,83.2314924 56.8430717,84.5586616 C56.5309923,86.0421708 55.2047436,86.9791428 53.7223958,86.9791428 L41.4737222,86.9791428 C40.1473549,86.9791428 38.9770866,86.1983922 38.5090267,84.9490963 C38.4309772,84.324567 38.3529277,83.6218084 38.2749968,82.9971604 C38.1969472,82.6068444 38.1969472,82.2164098 38.1190163,81.8259751 C37.9629173,80.7329005 37.8069369,79.7179366 37.5727883,78.6247433 L57.7793101,78.6247433 C57.6232111,79.327502 57.5451615,80.1082526 57.3891811,80.8110112 L57.3891811,80.8110112 Z M54.970595,96.8170515 C55.0486445,97.1293755 54.970595,97.3635888 54.7365651,97.5978021 C54.5805847,97.8320154 54.2685052,97.988118 53.9564258,97.988118 L41.3956727,97.988118 C41.0835932,97.988118 40.8495633,97.8320154 40.6155333,97.5978021 C40.4594343,97.3635888 40.3815034,97.0512648 40.3815034,96.8170515 L41.941782,88.150328 L53.4103164,88.150328 L54.970595,96.8170515 Z M61.9920861,67.6938788 C63.396503,63.7118964 65.1908116,59.8861353 67.2193873,56.3725796 C67.3753677,56.0602556 67.6093976,55.7479316 67.7653781,55.4356076 L67.2973182,55.045173 L67.7653781,55.4356076 C67.7653781,55.4356076 67.7653781,55.3574969 67.8434276,55.3574969 C70.0278651,51.5317359 71.042153,47.1593188 70.8081231,42.7087911 C70.1839642,30.9970572 60.8998674,21.5495832 49.2753526,20.7688326 C42.8000895,20.300406 36.5586191,22.5646658 31.8775459,26.9370829 C27.1965914,31.3093812 24.5439754,37.4776315 24.5439754,43.8800951 C24.5439754,47.4715241 25.3241147,50.9070879 26.9625615,54.1863117 C26.9625615,54.1863117 26.9625615,54.2644224 27.0404924,54.2644224 C27.5867204,55.3574969 28.2107607,56.3725796 28.9129691,57.3875435 C30.7072776,60.6668859 32.3457244,64.1022123 33.5939236,67.6938788 C33.3600123,67.6938788 33.1258637,67.7718707 33.0479328,68.0062028 C32.8918338,68.3185267 32.9697647,68.6308507 33.2818442,68.7869534 C33.5939236,68.943056 33.9060031,69.0992773 34.1401516,69.25538 C35.1543209,72.3005091 36.0125097,75.4235115 36.5586191,78.702854 L37.2607089,84.2463376 C37.3387584,84.5586616 37.4168079,84.9490963 37.4948574,85.1833096 C38.0408482,86.5888268 39.3672155,87.6819014 40.8495633,87.9161147 L39.3672155,96.4266168 C39.289166,97.0512648 39.4452651,97.675794 39.8352754,98.22245 C40.2254044,98.6908767 40.8495633,99.0032006 41.4737222,99.0032006 L54.1125248,99.0032006 C54.7365651,99.0032006 55.360724,98.6908767 55.7507343,98.22245 C56.1408633,97.7540234 56.2969623,97.0512648 56.2187942,96.4266168 L54.5805847,88.0722174 C56.2189128,87.7598934 57.4672306,86.5888268 57.9352905,84.8709856 L57.9352905,84.7929936 C57.9352905,84.636891 58.0132214,84.4806696 58.0132214,84.324567 L58.4813999,80.8890032 C59.1054402,76.9070208 60.119728,73.0032678 61.3680459,69.25538 C61.6800067,69.0992773 61.9141552,68.943056 62.2262347,68.7869534 C62.5383141,68.6308507 62.616245,68.2404161 62.4603832,68.0062028 C62.3822151,67.7718707 62.1481852,67.6938788 61.9920861,67.6938788 L61.9920861,67.6938788 Z" id="Fill-72" fill="#29064F"></path>
            </g>
        </g>
    </g>
</svg>