<svg width="72px" height="14px" viewBox="590 456 72 14" version="1.1" xmlns="http://www.w3.org/2000/svg" xmlns:xlink="http://www.w3.org/1999/xlink">
    <path d="M592,463.125 C592,463.125 592,458.25 596.875,458.25 C601.75,458.25 601.75,463.125 601.75,463.125 C601.75,463.125 601.75,468 606.625,468 C611.5,468 611.5,463.125 611.5,463.125 C611.5,463.125 611.5,458.25 616.375,458.25 C621.25,458.25 621.25,463.125 621.25,463.125 C621.25,463.125 621.25,468 626.125,468 C631,468 631,463.125 631,463.125 C631,463.125 631,458.25 635.875,458.25 C640.75,458.25 640.75,463.125 640.75,463.125 C640.75,463.125 640.75,468 645.625,468 C650.5,468 650.5,463.125 650.5,463.125 C650.5,463.125 650.5,458.25 655.375,458.25 C660.25,458.25 660.25,463.125 660.25,463.125" id="Page-1-Copy-2" stroke="#F34400" stroke-width="3" fill="none"></path>
</svg>
