<?xml version="1.0" encoding="UTF-8"?>
<svg width="107px" height="100px" viewBox="0 0 107 100" version="1.1" xmlns="http://www.w3.org/2000/svg" xmlns:xlink="http://www.w3.org/1999/xlink">
    <!-- Generator: Sketch 42 (36781) - http://www.bohemiancoding.com/sketch -->
    <title>Group 2</title>
    <desc>Created with Sketch.</desc>
    <defs></defs>
    <g id="Welcome" stroke="none" stroke-width="1" fill="none" fill-rule="evenodd">
        <g id="Artboard" transform="translate(-245.000000, -1282.000000)">
            <g id="Group-2" transform="translate(245.000000, 1282.000000)">
                <path d="M91.9739927,67.1283429 L92.0578272,67.1283429 L92.0578272,17.6112675 C92.0578272,16.5202711 91.1347548,15.5970711 90.0436308,15.5970711 L14.0896057,15.5970711 C12.9986093,15.5970711 12.0754093,16.5202711 12.0754093,17.6112675 L12.0754093,67.1283429 C12.0754093,68.219467 12.9986093,69.1425393 14.0896057,69.1425393 L40.4427209,69.1425393 L63.6905156,69.1425393 L89.9597963,69.1425393 C91.0507928,69.1425393 91.9739927,68.219467 91.9739927,67.1283429 Z M64.2779949,77.7030973 L63.1030363,70.485422 L40.9463657,70.485422 L39.8552416,77.7030973 L64.2779949,77.7030973 Z M69.2297152,79.9691798 C69.2297152,79.3817006 68.726198,78.9620179 68.1387187,78.8781834 L65.0333983,78.8781834 L39.0999658,78.8781834 L35.9946454,78.8781834 C35.4070385,78.8781834 34.9035213,79.3817006 34.9035213,79.9691798 L34.9035213,81.4799866 L69.2297152,81.4799866 L69.2297152,79.9691798 Z M90.0436308,14.421985 C91.8061962,14.421985 93.2329133,15.8488297 93.3167477,17.6952296 L93.3167477,67.2121774 C93.3167477,69.0587049 91.8061962,70.485422 90.0436308,70.485422 L64.445919,70.485422 L65.5369155,77.7030973 L68.1387187,77.7030973 C69.4814738,77.7030973 70.4886358,78.7942213 70.4886358,80.0531419 L70.4886358,82.2352624 C70.4886358,82.6549452 70.1529151,82.9065762 69.8171944,82.9065762 L34.3161697,82.9065762 C33.8964869,82.9065762 33.6447283,82.5708555 33.6447283,82.2352624 L33.6447283,80.0531419 C33.6447283,78.7103869 34.7357248,77.7030973 35.9946454,77.7030973 L38.596321,77.7030973 L39.6873175,70.485422 L14.0896057,70.485422 C12.2432059,70.485422 10.8164888,68.9747428 10.8164888,67.2121774 L10.8164888,17.6952296 C10.8164888,15.8488297 12.3271679,14.421985 14.0896057,14.421985 L90.0436308,14.421985 Z" id="Fill-1" fill="#29064F"></path>
                <path d="M17.1231041,63.7336184 L87.2022089,63.7336184 L87.2022089,20.0913356 L17.1231041,20.0913356 L17.1231041,63.7336184 Z M87.8735226,18.7485805 L16.5356248,18.7485805 C16.1999042,18.7485805 15.8641835,19.0004667 15.8641835,19.4200218 L15.8641835,64.3210976 C15.8641835,64.6568183 16.1159421,64.9925389 16.5356248,64.9925389 L87.8735226,64.9925389 C88.2092433,64.9925389 88.544964,64.7407803 88.544964,64.3210976 L88.544964,19.4200218 C88.4611295,19.0843012 88.2092433,18.7485805 87.8735226,18.7485805 L87.8735226,18.7485805 Z" id="Fill-3" fill="#29064F"></path>
                <path d="M48.9850911,25.0550683 L53.1815356,25.0550683 C53.5172563,25.0550683 53.8528493,24.8033097 53.8528493,24.3836269 C53.8528493,23.9640718 53.5172563,23.7962753 53.1815356,23.7962753 L48.9850911,23.7962753 C48.6493704,23.7962753 48.3136498,24.0479063 48.3136498,24.467589 C48.3136498,24.8872717 48.6493704,25.0550683 48.9850911,25.0550683" id="Fill-5" fill="#29064F"></path>
                <path d="M65.5703739,25.0550683 L69.7668184,25.0550683 C70.102539,25.0550683 70.4381321,24.8033097 70.4381321,24.3836269 C70.4381321,23.9640718 70.102539,23.7962753 69.7668184,23.7962753 L65.5703739,23.7962753 C65.2346532,23.7962753 64.8989325,24.0479063 64.8989325,24.467589 C64.8989325,24.8872717 65.2346532,25.0550683 65.5703739,25.0550683" id="Fill-6" fill="#29064F"></path>
                <path d="M82.8768835,25.1390303 L85.1428385,25.1390303 C85.4785591,25.1390303 85.8144074,24.8872717 85.8144074,24.467589 C85.8144074,24.0480339 85.5625212,23.7962753 85.1428385,23.7962753 L82.8768835,23.7962753 C82.5411628,23.7962753 82.2053146,24.0480339 82.2053146,24.467589 C82.2053146,24.8872717 82.5411628,25.1390303 82.8768835,25.1390303" id="Fill-7" fill="#29064F"></path>
                <path d="M57.5543201,25.0550683 L61.750637,25.0550683 C62.0863576,25.0550683 62.4219507,24.8033097 62.4219507,24.3836269 C62.4219507,23.9640718 62.1703197,23.7962753 61.834599,23.7962753 L57.6381545,23.7962753 C57.3024339,23.7962753 56.9668408,24.0479063 56.9668408,24.467589 C56.9668408,24.8872717 57.2185994,25.0550683 57.5543201,25.0550683" id="Fill-8" fill="#29064F"></path>
                <path d="M74.2235649,25.0550683 L78.4200094,25.0550683 C78.7557301,25.0550683 79.0913231,24.8033097 79.0913231,24.3836269 C79.0913231,23.9640718 78.7557301,23.7962753 78.4200094,23.7962753 L74.2235649,23.7962753 C73.8878442,23.7962753 73.5521236,24.0479063 73.5521236,24.467589 C73.5521236,24.8872717 73.8878442,25.0550683 74.2235649,25.0550683" id="Fill-9" fill="#29064F"></path>
                <path d="M30.2365106,28.7445266 L34.4329551,28.7445266 C34.7686758,28.7445266 35.1042688,28.492768 35.1042688,28.0730852 C35.1042688,27.6535301 34.8526378,27.4017715 34.4329551,27.4017715 L30.2365106,27.4017715 C29.9007899,27.4017715 29.5650693,27.6535301 29.5650693,28.0730852 C29.5650693,28.492768 29.9007899,28.7445266 30.2365106,28.7445266" id="Fill-10" fill="#29064F"></path>
                <path d="M38.1686024,28.7445266 L42.1969951,28.7445266 C42.5327158,28.7445266 42.8684365,28.492768 42.8684365,28.0730852 C42.8684365,27.6535301 42.6165503,27.4017715 42.1969951,27.4017715 L38.1686024,27.4017715 C37.8328817,27.4017715 37.497161,27.6535301 37.497161,28.0730852 C37.497161,28.492768 37.8328817,28.7445266 38.1686024,28.7445266" id="Fill-11" fill="#29064F"></path>
                <path d="M21.5833196,28.7445266 L25.7797641,28.7445266 C26.1154848,28.7445266 26.4510778,28.492768 26.4510778,28.0730852 C26.4510778,27.6535301 26.1993192,27.4017715 25.7797641,27.4017715 L21.5833196,27.4017715 C21.2475989,27.4017715 20.9118783,27.6535301 20.9118783,28.0730852 C20.9118783,28.492768 21.1637645,28.7445266 21.5833196,28.7445266" id="Fill-12" fill="#29064F"></path>
                <path d="M65.2722987,52.6402453 L61.243906,52.6402453 C60.9080577,52.6402453 60.572337,52.8921315 60.572337,53.3116866 C60.572337,53.6474073 60.8242232,53.9830003 61.243906,53.9830003 L65.2722987,53.9830003 C65.6080194,53.9830003 65.9437401,53.7313693 65.9437401,53.3116866 C65.9437401,52.8920039 65.6919815,52.6402453 65.2722987,52.6402453" id="Fill-13" fill="#29064F"></path>
                <path d="M77.1576198,53.3116866 C77.1576198,53.6474073 77.4093784,53.9831279 77.8290611,53.9831279 L82.025378,53.9831279 C82.3610987,53.9831279 82.6968194,53.7313693 82.6968194,53.3116866 C82.6968194,52.975966 82.4450608,52.6402453 82.025378,52.6402453 L77.8290611,52.6402453 C77.4093784,52.6402453 77.1576198,52.8920039 77.1576198,53.3116866" id="Fill-14" fill="#29064F"></path>
                <path d="M68.5044288,53.3116866 C68.5044288,53.6474073 68.756315,53.9831279 69.1758701,53.9831279 L73.372187,53.9831279 C73.7079077,53.9831279 74.0436284,53.7313693 74.0436284,53.3116866 C74.0436284,52.975966 73.7918698,52.6402453 73.372187,52.6402453 L69.1758701,52.6402453 C68.756315,52.6402453 68.5044288,52.8920039 68.5044288,53.3116866" id="Fill-15" fill="#29064F"></path>
                <path d="M81.5406836,56.9668408 L75.6657634,56.9668408 C75.3300427,56.9668408 74.9943221,57.218727 74.9943221,57.6382821 C74.9943221,57.9740028 75.2462083,58.3095958 75.6657634,58.3095958 L81.5406836,58.3095958 C81.8764043,58.3095958 82.2121249,58.0579649 82.2121249,57.6382821 C82.2121249,57.218727 81.8764043,56.9668408 81.5406836,56.9668408" id="Fill-16" fill="#29064F"></path>
                <path d="M72.8874926,56.9668408 L67.0125724,56.9668408 C66.6768517,56.9668408 66.341131,57.218727 66.341131,57.6382821 C66.341131,57.9740028 66.5928896,58.3095958 67.0125724,58.3095958 L72.8874926,58.3095958 C73.2232133,58.3095958 73.5589339,58.0579649 73.5589339,57.6382821 C73.4749719,57.218727 73.2232133,56.9668408 72.8874926,56.9668408" id="Fill-17" fill="#29064F"></path>
                <path d="M63.5132023,56.9668408 L57.6382821,56.9668408 C57.3025615,56.9668408 56.9668408,57.218727 56.9668408,57.6382821 C56.9668408,57.9740028 57.218727,58.3095958 57.6382821,58.3095958 L63.5132023,58.3095958 C63.848923,58.3095958 64.1846437,58.0579649 64.1846437,57.6382821 C64.1846437,57.218727 63.9327575,56.9668408 63.5132023,56.9668408" id="Fill-18" fill="#29064F"></path>
                <path d="M39.3623836,56.9668408 L36.005177,56.9668408 C35.6695839,56.9668408 35.3338633,57.218727 35.3338633,57.6382821 C35.3338633,57.9740028 35.5856219,58.3095958 36.005177,58.3095958 L39.3623836,58.3095958 C39.6981043,58.3095958 40.033825,58.0579649 40.033825,57.6382821 C39.9498629,57.218727 39.6981043,56.9668408 39.3623836,56.9668408" id="Fill-19" fill="#29064F"></path>
                <path d="M25.6613703,56.9668408 L22.3042912,56.9668408 C21.9686982,56.9668408 21.6329775,57.218727 21.6329775,57.6382821 C21.6329775,57.9740028 21.8846085,58.3095958 22.3042912,58.3095958 L25.6613703,58.3095958 C25.997091,58.3095958 26.3328116,58.0579649 26.3328116,57.6382821 C26.3328116,57.218727 25.997091,56.9668408 25.6613703,56.9668408" id="Fill-20" fill="#29064F"></path>
                <path d="M28.7943121,58.3095958 L32.1513911,58.3095958 C32.4869842,58.3095958 32.8227049,58.0577096 32.8227049,57.6381545 C32.8227049,57.3024339 32.5710739,56.9668408 32.1513911,56.9668408 L28.7943121,56.9668408 C28.4585914,56.9668408 28.1228708,57.2184718 28.1228708,57.6381545 C28.2068328,57.9738752 28.4585914,58.3095958 28.7943121,58.3095958" id="Fill-21" fill="#29064F"></path>
                <path d="M41.8237565,57.6382821 C41.8237565,57.9740028 42.0755151,58.3097234 42.4951979,58.3097234 L43.0826771,58.3097234 C43.4183978,58.3097234 43.7541185,58.0578372 43.7541185,57.6382821 C43.7541185,57.3025615 43.5022323,56.9668408 43.0826771,56.9668408 L42.4951979,56.9668408 C42.1594772,57.0508029 41.8237565,57.3025615 41.8237565,57.6382821" id="Fill-22" fill="#29064F"></path>
                <path d="M62.1609651,35.6057258 C61.9931686,35.9414465 62.0770031,36.2771671 62.3287617,36.4449637 L71.2250403,41.9841632 L62.3287617,47.5233628 C61.9931686,47.6912869 61.9090789,48.1108421 62.1609651,48.3627283 C62.2447996,48.5305248 62.4966858,48.6983213 62.6644823,48.6983213 C62.7484444,48.6983213 62.9162409,48.6983213 63.000203,48.6143593 L72.8196815,42.5717701 C72.9876057,42.487808 73.1554022,42.2359218 73.1554022,42.0682529 C73.1554022,41.9002012 73.0714401,41.6484426 72.8196815,41.5644805 L63.000203,35.5218913 C62.7484444,35.1861707 62.3287617,35.3539672 62.1609651,35.6057258" id="Fill-23" fill="#F34400"></path>
                <path d="M42.7228041,35.6480701 C42.5550076,35.3123494 42.1353248,35.228515 41.8835662,35.4802736 L32.0640877,41.5229903 C31.8961636,41.6068248 31.728367,41.858711 31.728367,42.0265075 C31.728367,42.1944316 31.8123291,42.4461902 32.0640877,42.5301523 L41.8835662,48.5728691 C41.9674007,48.6567035 42.1353248,48.6567035 42.2192869,48.6567035 C42.4710455,48.6567035 42.6389696,48.5728691 42.7228041,48.3209829 C42.8906006,47.9853898 42.8067661,47.6496691 42.5550076,47.481745 L33.6587289,41.9425454 L42.5550076,36.4034735 C42.8906006,36.3195114 42.9746903,35.9837908 42.7228041,35.6480701" id="Fill-24" fill="#F34400"></path>
                <path d="M48.7151954,52.1187084 L48.966954,52.1187084 C49.2187126,52.1187084 49.4704712,51.9509119 49.5544332,51.6990257 L56.5203499,33.3189892 C56.604312,32.9832686 56.5203499,32.6475479 56.1846293,32.4797514 C55.8489086,32.3957893 55.5131879,32.4797514 55.3453914,32.815472 L48.3794747,51.1955085 C48.2116782,51.6151912 48.3794747,51.9509119 48.7151954,52.1187084" id="Fill-25" fill="#F34400"></path>
                <path d="M4.94825131,28.0732128 C4.94825131,27.7374922 4.69649271,27.4017715 4.27680998,27.4017715 C3.94108932,27.4017715 3.60549625,27.6536577 3.60549625,28.0732128 L3.60549625,37.5569707 C3.60549625,37.8926914 3.85725485,38.2285397 4.27680998,38.2285397 C4.61253064,38.2285397 4.94825131,37.9766535 4.94825131,37.5569707 L4.94825131,28.0732128 Z" id="Fill-26" fill="#29064F"></path>
                <path d="M4.27693758,40.381558 C3.94121692,40.381558 3.60549625,40.6334442 3.60549625,41.0529994 L3.60549625,44.0743577 C3.60549625,44.4100784 3.85725485,44.7457991 4.27693758,44.7457991 C4.61265825,44.7457991 4.94837891,44.4940405 4.94837891,44.0743577 L4.94837891,41.0529994 C4.86441684,40.6334442 4.61265825,40.381558 4.27693758,40.381558" id="Fill-27" fill="#29064F"></path>
                <path d="M100.13348,50.4272896 C100.13348,50.0915689 99.8815938,49.7558483 99.461911,49.7558483 C99.0423559,49.7558483 98.7905973,50.0077345 98.7905973,50.4272896 L98.7905973,59.9110475 C98.7905973,60.2467682 99.0423559,60.5824888 99.461911,60.5824888 C99.8815938,60.5824888 100.13348,60.3307302 100.13348,59.9110475 L100.13348,50.4272896 Z" id="Fill-28" fill="#29064F"></path>
                <path d="M99.4620386,69.225528 C99.126318,69.225528 98.7905973,69.4772866 98.7905973,69.8969694 L98.7905973,72.9182002 C98.7905973,73.2539208 99.0423559,73.5896415 99.4620386,73.5896415 C99.8817214,73.5896415 100.13348,73.3380105 100.13348,72.9182002 L100.13348,69.8969694 C100.049518,69.4772866 99.7977593,69.225528 99.4620386,69.225528" id="Fill-29" fill="#29064F"></path>
                <path d="M99.1815169,85.2785305 C98.9296307,85.0267719 98.5100756,85.0267719 98.258317,85.2785305 C98.0065584,85.5304167 98.0065584,85.9499718 98.258317,86.2017304 L99.6850341,87.6284476 C99.7689962,87.7124096 99.9369203,87.7962441 100.104589,87.7962441 C100.272641,87.7962441 100.440438,87.7124096 100.524272,87.6284476 C100.776158,87.376689 100.776158,86.9570062 100.524272,86.7053752 L99.1815169,85.2785305 Z" id="Fill-30" fill="#F34400"></path>
                <path d="M103.508112,89.6052217 C103.256226,89.3533355 102.836671,89.3533355 102.584913,89.6052217 C102.333154,89.8569803 102.333154,90.276663 102.584913,90.528294 L104.01163,91.9551388 C104.095592,92.0389732 104.263516,92.1229353 104.431312,92.1229353 C104.599237,92.1229353 104.767033,92.0389732 104.850868,91.9551388 C105.102754,91.7032526 105.102754,91.2836974 104.850868,91.0319388 L103.508112,89.6052217 Z" id="Fill-31" fill="#F34400"></path>
                <path d="M99.685066,89.6052217 L98.2582213,91.0319388 C98.0065903,91.2836974 98.0065903,91.7032526 98.2582213,91.9551388 C98.342311,92.0389732 98.5101075,92.1229353 98.677904,92.1229353 C98.8458282,92.1229353 99.0136247,92.0389732 99.0975868,91.9551388 L100.524304,90.528294 C100.77619,90.276663 100.77619,89.8569803 100.524304,89.6052217 C100.356507,89.3533355 99.9369522,89.3533355 99.685066,89.6052217" id="Fill-32" fill="#F34400"></path>
                <path d="M104.732856,85.2785305 L103.306012,86.7053752 C103.054253,86.9570062 103.054253,87.376689 103.306012,87.6284476 C103.390101,87.7124096 103.55777,87.7962441 103.725695,87.7962441 C103.893491,87.7962441 104.061415,87.7124096 104.145377,87.6284476 L105.572094,86.2017304 C105.823853,85.9499718 105.823853,85.5304167 105.572094,85.2785305 C105.320336,85.0267719 104.984615,85.0267719 104.732856,85.2785305" id="Fill-33" fill="#F34400"></path>
                <path d="M43.6569704,92.489523 C43.4050842,92.2377644 42.985529,92.2377644 42.7337704,92.489523 C42.4818842,92.7414092 42.4818842,93.1609643 42.7337704,93.4127229 L44.1604876,94.8394401 C44.2444496,94.9234021 44.4122462,95.0072366 44.5800427,95.0072366 C44.7479668,95.0072366 44.9157633,94.9234021 44.9997254,94.8394401 C45.251484,94.5876815 45.251484,94.1679987 44.9997254,93.9163677 L43.6569704,92.489523 Z" id="Fill-34" fill="#F34400"></path>
                <path d="M47.9834702,96.8161185 C47.731584,96.5643599 47.3120288,96.5643599 47.0602702,96.8161185 C46.8085116,97.0680047 46.8085116,97.4875598 47.0602702,97.7393184 L48.4869874,99.1661632 C48.5709494,99.2499976 48.738746,99.3339597 48.9065425,99.3339597 C49.0744666,99.3339597 49.2423908,99.2499976 49.3262252,99.1661632 C49.5781114,98.914277 49.5781114,98.4945942 49.3262252,98.2429632 L47.9834702,96.8161185 Z" id="Fill-35" fill="#F34400"></path>
                <path d="M44.1605195,96.8161185 L42.7336747,98.2429632 C42.4819161,98.4945942 42.4819161,98.914277 42.7336747,99.1661632 C42.8176368,99.2499976 42.9855609,99.3339597 43.1533575,99.3339597 C43.3212816,99.3339597 43.4890781,99.2499976 43.5730402,99.1661632 L44.9997573,97.7393184 C45.2515159,97.4875598 45.2515159,97.0680047 44.9997573,96.8161185 C44.8319608,96.5643599 44.4122781,96.5643599 44.1605195,96.8161185" id="Fill-36" fill="#F34400"></path>
                <path d="M48.4869874,92.489523 L47.0602702,93.9163677 C46.8085116,94.1679987 46.8085116,94.5876815 47.0602702,94.8394401 C47.1442323,94.9234021 47.3120288,95.0072366 47.4798254,95.0072366 C47.6477495,95.0072366 47.815546,94.9234021 47.8995081,94.8394401 L49.3262252,93.4127229 C49.5781114,93.1609643 49.5781114,92.7414092 49.3262252,92.489523 C49.0744666,92.2377644 48.7388736,92.2377644 48.4869874,92.489523" id="Fill-37" fill="#F34400"></path>
                <path d="M3.86279589,2.5388636 C3.94675796,2.62269807 4.11468209,2.70666013 4.28247862,2.70666013 C4.45027515,2.70666013 4.61819929,2.62269807 4.70203375,2.5388636 C4.95391995,2.2869774 4.95391995,1.86742227 4.70203375,1.61566367 L3.27531663,0.188818949 C3.02355803,-0.0629396495 2.6040029,-0.0629396495 2.3521167,0.188818949 C2.1003581,0.440705148 2.1003581,0.86038788 2.3521167,1.11201888 L3.86279589,2.5388636 Z" id="Fill-38" fill="#F34400"></path>
                <path d="M8.18939139,7.58652645 C8.27335346,7.67036092 8.44127759,7.75432299 8.60907412,7.75432299 C8.77687066,7.75432299 8.94479479,7.67036092 9.02875686,7.58652645 C9.28051545,7.33464025 9.28051545,6.91508512 9.02875686,6.66332653 L7.60191213,5.2366094 C7.35015353,4.9847232 6.9305984,4.9847232 6.6787122,5.2366094 C6.42695361,5.488368 6.42695361,5.90805073 6.6787122,6.15968173 L8.18939139,7.58652645 Z" id="Fill-39" fill="#F34400"></path>
                <path d="M2.8556339,7.83818935 C3.02343043,7.83818935 3.19135456,7.75435489 3.27531663,7.67039282 L4.70203375,6.15971363 C4.95379235,5.90795503 4.95379235,5.4882723 4.70203375,5.2365137 C4.45027515,4.9847551 4.03059242,4.9847551 3.77883382,5.2365137 L2.3521167,6.66323083 C2.1003581,6.91511703 2.1003581,7.33467215 2.3521167,7.58643075 C2.51991323,7.75435489 2.68783736,7.83818935 2.8556339,7.83818935" id="Fill-40" fill="#F34400"></path>
                <path d="M7.1822294,2.70666013 C7.35002593,2.70666013 7.51795006,2.62269807 7.60191213,2.5388636 L9.02875686,1.11201888 C9.28038785,0.860260278 9.28038785,0.440577547 9.02875686,0.188818949 C8.77687066,-0.0629396495 8.35718792,-0.0629396495 8.10542933,0.188818949 L6.6787122,1.61553607 C6.42695361,1.86742227 6.42695361,2.2869774 6.6787122,2.5388636 C6.84650873,2.70666013 7.01443287,2.70666013 7.1822294,2.70666013" id="Fill-41" fill="#F34400"></path>
                <path d="M60.108665,5.4232287 C60.1924995,5.50719077 60.3604236,5.59102523 60.5282202,5.59102523 C60.6961443,5.59102523 60.8639408,5.50719077 60.9479029,5.4232287 C61.1996615,5.1714701 61.1996615,4.75178737 60.9479029,4.50002878 L59.5211858,3.07331165 C59.2692996,2.82142545 58.8497444,2.82142545 58.5978582,3.07331165 C58.3460996,3.32507025 58.3460996,3.74475298 58.5978582,3.99638398 L60.108665,5.4232287 Z" id="Fill-42" fill="#F34400"></path>
                <path d="M65.1563279,9.74982421 C65.24029,9.83378627 65.4082141,9.91762074 65.5760106,9.91762074 C65.7438071,9.91762074 65.9117313,9.83378627 65.9955657,9.74982421 C66.2474519,9.49806561 66.2474519,9.07838288 65.9955657,8.82675188 L64.5688486,7.39990716 C64.31709,7.14802096 63.8975349,7.14802096 63.6456487,7.39990716 C63.3937625,7.65166575 63.3937625,8.07134848 63.6456487,8.32310708 L65.1563279,9.74982421 Z" id="Fill-43" fill="#F34400"></path>
                <path d="M59.1013754,9.91762074 C59.269172,9.91762074 59.4370961,9.83378627 59.5210582,9.74982421 L60.9479029,8.32310708 C61.1995339,8.07122088 61.1995339,7.65153815 60.9479029,7.39990716 C60.6960167,7.14802096 60.276334,7.14802096 60.0245754,7.39990716 L58.5978582,8.82662428 C58.3460996,9.07838288 58.3460996,9.49806561 58.5978582,9.74982421 C58.8496168,9.91762074 58.9335789,9.91762074 59.1013754,9.91762074" id="Fill-44" fill="#F34400"></path>
                <path d="M64.1491659,5.59102523 C64.3169624,5.59102523 64.4848866,5.50719077 64.5688486,5.4232287 L65.9955657,3.99638398 C66.2473243,3.74462538 66.2473243,3.32494265 65.9955657,3.07331165 C65.7438071,2.82142545 65.3241244,2.82142545 65.0723658,3.07331165 L63.6456487,4.49990117 C63.3937625,4.75178737 63.3937625,5.1714701 63.6456487,5.4232287 C63.8134452,5.50719077 63.9813694,5.59102523 64.1491659,5.59102523" id="Fill-45" fill="#F34400"></path>
                <path d="M34.9176495,1.98001984 C36.008646,1.98001984 36.8478839,2.8192577 36.8478839,3.91038176 C36.8478839,5.00150582 36.008646,5.84074368 34.9176495,5.84074368 C33.8265255,5.84074368 32.9872876,5.00150582 32.9872876,3.91038176 C32.9872876,2.8192577 33.8265255,1.98001984 34.9176495,1.98001984 M34.9176495,7.09953667 C36.6800873,7.09953667 38.1068044,5.67281955 38.1068044,3.91038176 C38.1068044,2.14781637 36.6800873,0.721099251 34.9176495,0.721099251 C33.1550841,0.721099251 31.728367,2.14781637 31.728367,3.91038176 C31.728367,5.67281955 33.1550841,7.09953667 34.9176495,7.09953667" id="Fill-46" fill="#F34400"></path>
                <path d="M81.7889732,88.0459306 C80.6978492,88.0459306 79.8586113,87.2066928 79.8586113,86.1155687 C79.8586113,85.0245723 80.6978492,84.1852068 81.7889732,84.1852068 C82.8800973,84.1852068 83.7193351,85.0245723 83.7193351,86.1155687 C83.7193351,87.2066928 82.8800973,88.0459306 81.7889732,88.0459306 M81.7889732,82.9264138 C80.0264078,82.9264138 78.5998183,84.3531309 78.5998183,86.1155687 C78.5998183,87.8781341 80.0264078,89.3048512 81.7889732,89.3048512 C83.5515386,89.3048512 84.9781281,87.8781341 84.9781281,86.1155687 C84.9781281,84.3531309 83.5515386,82.9264138 81.7889732,82.9264138" id="Fill-47" fill="#F34400"></path>
                <path d="M103.422078,30.3579906 C102.330954,30.3579906 101.491716,29.5187527 101.491716,28.4276287 C101.491716,27.3366322 102.330954,26.4973944 103.422078,26.4973944 C104.513075,26.4973944 105.352313,27.3366322 105.352313,28.4276287 C105.352313,29.5187527 104.513075,30.3579906 103.422078,30.3579906 M103.422078,25.2384738 C101.659513,25.2384738 100.232796,26.6653185 100.232796,28.4276287 C100.232796,30.1901941 101.659513,31.6169112 103.422078,31.6169112 C105.184516,31.6169112 106.611233,30.1901941 106.611233,28.4276287 C106.611233,26.6653185 105.184516,25.2384738 103.422078,25.2384738" id="Fill-48" fill="#F34400"></path>
                <path d="M85.0400536,2.06385431 L96.3702114,2.06385431 C96.705932,2.06385431 97.0416527,1.81209571 97.0416527,1.39241298 C97.0416527,0.972857849 96.7898941,0.721099251 96.3702114,0.721099251 L85.0400536,0.721099251 C84.704333,0.721099251 84.3686123,0.972857849 84.3686123,1.39241298 C84.3686123,1.81209571 84.6203709,2.06385431 85.0400536,2.06385431" id="Fill-49" fill="#29064F"></path>
                <path d="M100.183266,2.06385431 L103.875938,2.06385431 C104.211658,2.06385431 104.547379,1.81209571 104.547379,1.39241298 C104.547379,0.972857849 104.295748,0.721099251 103.875938,0.721099251 L100.183266,0.721099251 C99.8474172,0.721099251 99.5116966,0.972857849 99.5116966,1.39241298 C99.5116966,1.81209571 99.8474172,2.06385431 100.183266,2.06385431" id="Fill-50" fill="#29064F"></path>
                <path d="M104.417228,4.99803683 C104.417228,4.66231617 104.165342,4.3265955 103.745659,4.3265955 L95.8565424,4.3265955 C95.5208217,4.3265955 95.1851011,4.5784817 95.1851011,4.99803683 C95.1851011,5.41771956 95.4369873,5.66947816 95.8565424,5.66947816 L103.745659,5.66947816 C104.165342,5.66947816 104.417228,5.3337575 104.417228,4.99803683" id="Fill-51" fill="#29064F"></path>
                <path d="M90.087876,4.3265955 C89.7521553,4.3265955 89.4163071,4.5783541 89.4163071,4.99803683 C89.4163071,5.41759196 89.6681933,5.66935056 90.087876,5.66935056 L92.6055896,5.66935056 C92.9413102,5.66935056 93.2770309,5.41759196 93.2770309,4.99803683 C93.2770309,4.5783541 93.0253999,4.3265955 92.6055896,4.3265955 L90.087876,4.3265955 Z" id="Fill-52" fill="#29064F"></path>
                <path d="M19.2125916,91.5796048 L7.88243383,91.5796048 C7.54671317,91.5796048 7.21099251,91.831491 7.21099251,92.2511737 C7.21099251,92.5868944 7.46287871,92.9224875 7.88243383,92.9224875 L19.2125916,92.9224875 C19.5484398,92.9224875 19.8841605,92.6707289 19.8841605,92.2511737 C19.8000708,91.831491 19.5484398,91.5796048 19.2125916,91.5796048" id="Fill-53" fill="#29064F"></path>
                <path d="M4.28027897,91.5796048 L0.671441329,91.5796048 C0.335720665,91.5796048 0,91.831491 0,92.2511737 C0,92.5868944 0.2518862,92.9224875 0.671441329,92.9224875 L4.36424104,92.9224875 C4.6999617,92.9224875 5.03568237,92.6707289 5.03568237,92.2511737 C4.9517203,91.831491 4.61599964,91.5796048 4.28027897,91.5796048" id="Fill-54" fill="#29064F"></path>
                <path d="M0.671441329,88.595892 L8.56055794,88.595892 C8.89640621,88.595892 9.23212687,88.3440058 9.23212687,87.924323 C9.23212687,87.5886024 8.98024067,87.2530093 8.56055794,87.2530093 L0.671441329,87.2530093 C0.335720665,87.2530093 0,87.5047679 0,87.924323 C0,88.2601713 0.2518862,88.595892 0.671441329,88.595892" id="Fill-55" fill="#29064F"></path>
                <path d="M14.7268705,88.595892 C15.0625912,88.595892 15.3983119,88.3440058 15.3983119,87.924323 C15.3983119,87.5886024 15.1464257,87.2530093 14.7268705,87.2530093 L12.2090293,87.2530093 C11.8733087,87.2530093 11.537588,87.5047679 11.537588,87.924323 C11.537588,88.2601713 11.7893466,88.595892 12.2090293,88.595892 L14.7268705,88.595892 Z" id="Fill-56" fill="#29064F"></path>
            </g>
        </g>
    </g>
</svg>